<svg width="45" height="45" viewBox="0 0 45 45" fill="none" xmlns="http://www.w3.org/2000/svg">
<circle cx="22.5" cy="22.5" r="22.5" fill="#EAEAFF"/>
<path d="M23 20C25.2091 20 27 18.2091 27 16C27 13.7909 25.2091 12 23 12C20.7909 12 19 13.7909 19 16C19 18.2091 20.7909 20 23 20Z" stroke="black" stroke-width="1.5"/>
<path d="M30.997 28C31 27.836 31 27.669 31 27.5C31 25.015 27.418 23 23 23C18.582 23 15 25.015 15 27.5C15 29.985 15 32 23 32C25.231 32 26.84 31.843 28 31.563" stroke="black" stroke-width="1.5" stroke-linecap="round"/>
</svg>
