<svg width="139" height="140" viewBox="0 0 139 140" fill="none" xmlns="http://www.w3.org/2000/svg">
<path d="M68.1955 0C68.9279 0 69.6603 0 70.3927 0C72.5898 1.11244 74.4208 2.22487 76.618 3.33731C96.0266 14.0908 115.435 24.4736 134.844 35.2271C135.942 35.9687 137.041 36.7104 137.773 37.8228C139.238 40.4185 138.139 43.0142 135.21 44.8682C129.351 48.2055 123.491 51.172 117.998 54.5093C117.632 54.8801 117.266 54.8801 116.534 55.2509C117.266 55.6218 117.632 55.9926 117.998 55.9926C123.858 58.9591 129.351 62.2964 135.21 65.2629C135.942 65.6337 136.675 66.3753 137.407 66.7461C139.604 69.3418 138.872 72.6791 135.576 74.5332C129.717 77.8705 123.858 80.837 117.998 84.1743C117.632 84.5451 117.266 84.5451 116.534 84.9159C117.266 85.2867 117.632 85.6575 117.998 85.6575C123.858 88.624 129.351 91.9613 135.21 94.9278C136.675 95.6694 137.773 96.4111 138.139 98.2651C138.872 100.861 137.773 103.086 135.21 104.569C114.336 116.064 93.8294 127.188 72.956 138.684C70.3926 140.167 68.1955 140.167 65.9983 138.684C45.1249 127.559 24.6178 116.435 4.1107 105.311C2.27971 104.198 0.814917 103.086 0.0825195 101.232C0.0825195 100.49 0.0825195 99.7484 0.0825195 99.0067C0.814917 97.1527 2.27971 95.6694 4.1107 94.9278C9.60368 91.9613 15.0967 88.9948 20.9558 85.6575C21.322 85.2867 21.6882 85.2867 22.4206 84.9159C21.6882 84.5451 21.322 84.1743 20.9558 84.1743C15.4629 81.2078 9.96988 78.2413 4.4769 75.2748C2.64591 74.1623 1.18112 73.0499 0.448718 71.1959C0.448718 70.4542 0.448718 69.7126 0.448718 68.971C1.18112 67.1169 2.64591 65.6337 4.4769 64.8921C5.5755 64.5212 6.67409 63.7796 7.77269 63.038C12.5333 60.4423 17.6601 57.8466 22.7868 54.8801C22.4206 54.5093 21.6882 54.1385 21.322 54.1385C15.8291 51.172 9.96988 47.8347 4.4769 44.8682C2.64591 43.7558 1.18112 42.6434 0.814917 40.7893C0.814917 40.0477 0.814917 39.306 0.814917 38.5644C1.54731 37.0812 2.27971 35.9687 4.1107 34.8563C24.984 23.3611 46.5897 11.866 68.1955 0ZM123.125 40.0477C122.759 39.6769 122.393 39.6769 122.027 39.306C104.815 30.0357 87.604 20.7655 70.7588 11.1244C70.0264 10.7535 69.2941 10.7535 68.5617 11.1244C51.3503 20.3946 34.139 30.0357 16.9277 39.306C16.5615 39.306 16.1953 39.6769 15.8291 40.0477C16.1953 40.0477 16.1953 40.4185 16.5615 40.4185C33.7728 50.0596 51.3503 59.3299 68.5617 68.971C69.2941 69.3418 70.0264 69.3418 70.7588 68.971C86.8716 60.0715 102.984 51.5428 118.731 42.6434C120.196 41.9017 121.294 40.7893 123.125 40.0477ZM15.4629 70.0834C15.8291 70.4542 16.1953 70.4542 16.1953 70.825C33.4066 80.0953 50.9841 89.7364 68.1955 99.0067C68.9279 99.3775 69.2941 99.3775 70.0265 99.0067C87.2378 89.7364 104.449 80.0953 121.66 70.825C122.027 70.825 122.393 70.4542 122.759 70.0834C117.266 67.1169 112.139 64.1504 107.013 61.5548C106.28 61.1839 105.548 61.1839 104.815 61.5548C94.1956 67.4877 83.5758 73.0499 72.5898 78.9829C70.0264 80.4661 68.1955 80.4661 65.6321 78.9829C55.0123 73.0499 44.0264 67.1169 33.4066 61.5548C33.0404 60.8131 32.308 60.8131 31.5756 61.1839C26.815 63.7796 21.6882 66.7461 16.5615 69.3418C16.5615 69.7126 16.1953 69.7126 15.4629 70.0834ZM15.4629 100.119C15.8291 100.49 16.1953 100.49 16.1953 100.49C33.4066 110.131 50.9841 119.401 68.1955 129.042C68.9279 129.413 69.6603 129.413 70.0265 129.042C87.2378 119.772 104.449 110.502 121.294 100.861C121.66 100.49 122.027 100.49 122.393 100.119C116.9 97.1527 111.773 94.1862 106.28 91.2197C105.548 90.8489 104.815 90.8489 104.083 91.2197C93.4632 97.1527 82.8434 102.715 71.8574 108.648C69.2941 110.131 67.0969 110.131 64.8997 108.648C54.2799 102.715 43.6601 96.7819 32.6742 91.2197C32.308 90.8489 31.5756 90.8489 30.8432 90.8489C26.4488 94.1862 20.9558 97.1527 15.4629 100.119Z" fill="#2D3353"/>
</svg>
