<svg width="45" height="45" viewBox="0 0 45 45" fill="none" xmlns="http://www.w3.org/2000/svg">
<circle cx="22.5" cy="22.5" r="22.5" fill="#EAEAFF"/>
<path fill-rule="evenodd" clip-rule="evenodd" d="M22.698 12H22.802C23.701 12 24.45 12 25.044 12.08C25.672 12.164 26.239 12.35 26.694 12.805C27.15 13.261 27.336 13.828 27.42 14.455C27.48 14.895 27.495 15.419 27.499 16.025C28.147 16.046 28.725 16.085 29.239 16.153C30.411 16.311 31.36 16.643 32.109 17.391C32.857 18.14 33.189 19.089 33.347 20.261C33.5 21.401 33.5 22.856 33.5 24.694V24.806C33.5 26.644 33.5 28.1 33.347 29.239C33.189 30.411 32.857 31.36 32.109 32.109C31.36 32.857 30.411 33.189 29.239 33.347C28.099 33.5 26.644 33.5 24.806 33.5H20.694C18.856 33.5 17.4 33.5 16.261 33.347C15.089 33.189 14.14 32.857 13.391 32.109C12.643 31.36 12.311 30.411 12.153 29.239C12 28.099 12 26.644 12 24.806V24.694C12 22.856 12 21.4 12.153 20.261C12.311 19.089 12.643 18.14 13.391 17.391C14.14 16.643 15.089 16.311 16.261 16.153C16.8385 16.0815 17.4192 16.0388 18.001 16.025C18.005 15.419 18.021 14.895 18.08 14.455C18.164 13.828 18.35 13.261 18.805 12.805C19.261 12.35 19.828 12.165 20.455 12.08C21.05 12 21.8 12 22.698 12ZM19.502 16.002C19.88 16 20.277 16 20.694 16H24.806C25.223 16 25.62 16 25.998 16.002C25.994 15.432 25.98 15.002 25.934 14.655C25.871 14.194 25.764 13.996 25.634 13.866C25.504 13.736 25.306 13.629 24.844 13.566C24.362 13.502 23.714 13.5 22.75 13.5C21.786 13.5 21.138 13.502 20.655 13.567C20.194 13.629 19.996 13.736 19.866 13.867C19.736 13.997 19.629 14.194 19.566 14.655C19.52 15.001 19.506 15.431 19.502 16.002ZM16.46 17.64C15.454 17.775 14.874 18.029 14.45 18.452C14.028 18.875 13.774 19.455 13.639 20.461C13.501 21.488 13.499 22.843 13.499 24.75C13.499 26.657 13.501 28.012 13.639 29.04C13.774 30.045 14.028 30.625 14.451 31.048C14.874 31.471 15.454 31.725 16.46 31.86C17.488 31.998 18.842 32 20.749 32H24.749C26.656 32 28.011 31.998 29.039 31.86C30.044 31.725 30.624 31.471 31.047 31.048C31.47 30.625 31.724 30.045 31.859 29.039C31.997 28.012 31.999 26.657 31.999 24.75C31.999 22.843 31.997 21.489 31.859 20.46C31.724 19.455 31.47 18.875 31.047 18.452C30.624 18.029 30.044 17.775 29.038 17.64C28.011 17.502 26.656 17.5 24.749 17.5H20.749C18.842 17.5 17.489 17.502 16.46 17.64ZM22.75 20C22.9489 20 23.1397 20.079 23.2803 20.2197C23.421 20.3603 23.5 20.5511 23.5 20.75V20.76C24.589 21.034 25.5 21.893 25.5 23.083C25.5 23.2819 25.421 23.4727 25.2803 23.6133C25.1397 23.754 24.9489 23.833 24.75 23.833C24.5511 23.833 24.3603 23.754 24.2197 23.6133C24.079 23.4727 24 23.2819 24 23.083C24 22.699 23.574 22.167 22.75 22.167C21.926 22.167 21.5 22.699 21.5 23.083C21.5 23.467 21.926 24 22.75 24C24.135 24 25.5 24.96 25.5 26.417C25.5 27.607 24.589 28.465 23.5 28.74V28.75C23.5 28.9489 23.421 29.1397 23.2803 29.2803C23.1397 29.421 22.9489 29.5 22.75 29.5C22.5511 29.5 22.3603 29.421 22.2197 29.2803C22.079 29.1397 22 28.9489 22 28.75V28.74C20.911 28.466 20 27.607 20 26.417C20 26.2181 20.079 26.0273 20.2197 25.8867C20.3603 25.746 20.5511 25.667 20.75 25.667C20.9489 25.667 21.1397 25.746 21.2803 25.8867C21.421 26.0273 21.5 26.2181 21.5 26.417C21.5 26.801 21.926 27.333 22.75 27.333C23.574 27.333 24 26.801 24 26.417C24 26.033 23.574 25.5 22.75 25.5C21.365 25.5 20 24.54 20 23.083C20 21.893 20.911 21.034 22 20.76V20.75C22 20.5511 22.079 20.3603 22.2197 20.2197C22.3603 20.079 22.5511 20 22.75 20Z" fill="black"/>
</svg>
