<svg width="67" height="64" viewBox="0 0 67 64" fill="none" xmlns="http://www.w3.org/2000/svg">
<path d="M66.238 32.7594C65.995 32.4934 65.6515 32.342 65.2913 32.342H39.0918C38.5731 32.342 38.1056 32.6545 37.9071 33.1335C37.7086 33.6126 37.8185 34.1642 38.1851 34.531L56.0213 52.3672C56.2619 52.6076 56.588 52.7428 56.928 52.7428C57.2681 52.7428 57.5943 52.6076 57.8347 52.3672C62.8323 47.3697 65.9339 40.7542 66.5682 33.7398C66.6008 33.3811 66.4809 33.0253 66.238 32.7594ZM56.907 49.626L42.1875 34.9065H63.8513C63.0707 40.3803 60.6446 45.5242 56.907 49.626ZM32.4466 32.6399V4.2098C32.4466 3.50159 31.8724 2.92752 31.1644 2.92752C23.086 2.92752 15.4912 6.07333 9.77901 11.7856C4.06671 17.4978 0.920898 25.0926 0.920898 33.171C0.920898 41.2493 4.06671 48.8442 9.77901 54.5563C15.4912 60.2685 23.086 63.4144 31.1644 63.4144C39.2427 63.4144 46.8375 60.2686 52.5498 54.5563C52.7903 54.3159 52.9254 53.9897 52.9254 53.6496C52.9254 53.3096 52.7903 52.9834 52.5498 52.7429L32.4466 32.6399ZM31.1644 60.8499C15.9022 60.8499 3.48546 48.4332 3.48546 33.171C3.48546 18.3382 15.2123 6.1931 29.8821 5.52144V33.171C29.8821 33.511 30.0172 33.8372 30.2577 34.0777L49.8093 53.6292C44.7005 58.2951 38.1285 60.8499 31.1644 60.8499ZM36.4493 29.6216H65.2891C65.6493 29.6216 65.9929 29.4702 66.2359 29.2042C66.4789 28.9383 66.5987 28.5825 66.5662 28.2238C65.8891 20.7386 62.4562 13.8057 56.9 8.70201C51.309 3.56648 44.0461 0.738281 36.4493 0.738281C35.7412 0.738281 35.167 1.31236 35.167 2.02056V28.3393C35.167 29.0476 35.7412 29.6216 36.4493 29.6216ZM37.7316 3.33169C51.096 3.92949 61.9946 13.8393 63.8508 27.0572H37.7316V3.33169ZM25.1609 40.6264C25.1609 43.0751 23.3022 45.1331 20.8111 45.6756L20.8374 46.767C20.8544 47.4749 20.2945 48.0627 19.5864 48.0798C19.5759 48.08 19.5654 48.0802 19.5549 48.0802C18.861 48.0802 18.2904 47.5264 18.2736 46.8288L18.2463 45.6981C16.7992 45.4106 15.8604 44.6329 14.9633 43.7867C14.448 43.3007 14.4246 42.4892 14.9106 41.9741C15.3966 41.459 16.2081 41.4353 16.7232 41.9213C17.7633 42.9025 18.3396 43.2508 19.5037 43.2508C21.209 43.2508 22.5963 42.0735 22.5963 40.6263C22.5963 39.1791 21.209 38.0018 19.5037 38.0018C16.3843 38.0018 13.8465 35.674 13.8465 32.8127C13.8465 30.363 15.7067 28.3045 18.1994 27.7628L18.1699 26.5281C18.1529 25.8202 18.713 25.2325 19.4211 25.2156C19.4315 25.2153 19.442 25.2152 19.4524 25.2152C20.1464 25.2152 20.717 25.7693 20.7337 26.4668L20.7655 27.795C22.1242 28.1233 23.7337 28.907 24.4566 30.007C24.8455 30.5989 24.681 31.3939 24.0891 31.7828C23.4974 32.1716 22.7022 32.007 22.3133 31.4153C21.9667 30.8877 20.365 30.1881 19.5037 30.1881C17.7984 30.1881 16.4111 31.3655 16.4111 32.8126C16.4111 34.2598 17.7984 35.4372 19.5037 35.4372C22.6231 35.4373 25.1609 37.7651 25.1609 40.6264Z" fill="#2D3353"/>
</svg>
