<svg width="36" height="37" viewBox="0 0 36 37" fill="none" xmlns="http://www.w3.org/2000/svg">
<path fill-rule="evenodd" clip-rule="evenodd" d="M28.7789 35.1949C30.3011 36.7171 32.7691 36.7171 34.2913 35.1949C35.8135 33.6726 35.8135 31.2046 34.2913 29.6824L23.2663 18.6574L34.291 7.63269C35.8133 6.11047 35.8133 3.64246 34.291 2.12024C32.7688 0.598025 30.3008 0.598024 28.7786 2.12024L17.7539 13.145L6.72908 2.12018C5.20686 0.597961 2.73885 0.597961 1.21663 2.12018C-0.305588 3.6424 -0.305589 6.11041 1.21663 7.63263L12.2414 18.6574L1.21637 29.6825C-0.305848 31.2047 -0.305848 33.6727 1.21637 35.1949C2.73859 36.7171 5.2066 36.7171 6.72882 35.1949L17.7539 24.1699L28.7789 35.1949Z" fill="#B3B3B3"/>
</svg>
