<svg width="72" height="70" viewBox="0 0 72 70" fill="none" xmlns="http://www.w3.org/2000/svg">
<path d="M67.7263 43.3122L64.9841 41.9407C66.1197 40.8471 66.8418 39.3286 66.8418 37.6315V6.0078C66.8418 2.69454 64.1497 0 60.8405 0H37.6469C34.3377 0 31.6455 2.69454 31.6455 6.0078V27.4026H27.5932C25.3155 27.4026 23.2663 28.6715 22.2437 30.7207L17.9862 39.2793C17.6284 39.9416 17.042 40.4085 16.353 40.587L4.55229 43.5384C1.87229 44.2371 0 46.6344 0 49.3725V57.6742C0 60.9746 2.70504 63.6602 6.02799 63.6602H8.90589C10.1045 67.3612 13.6125 70 17.6365 70C21.6194 70 25.099 67.3862 26.317 63.6602H42.658C43.8526 67.3612 47.3427 70 51.3433 70C55.3415 70 58.8277 67.3668 60.0287 63.6602H65.0495C68.3741 63.6602 71.0791 60.9746 71.0791 57.6742V48.6577C71.0791 46.43 69.7625 44.3324 67.7263 43.3122ZM35.2181 6.0078C35.2181 4.66457 36.3077 3.57496 37.6469 3.57496H60.8397C62.1805 3.57496 63.2701 4.66457 63.2701 6.0078V37.6307C63.2701 38.6032 62.6861 39.4303 61.8574 39.818C61.8485 39.8003 61.8332 39.789 61.8251 39.7712L57.2712 30.7151C56.268 28.7055 54.1687 27.4018 51.9233 27.4018H35.2181V6.0078ZM23.1451 61.6288C22.7679 64.3629 20.3981 66.425 17.6365 66.425C14.8458 66.425 12.459 64.3629 12.0859 61.6466C12.0487 61.3631 12.0099 61.0844 12.0099 60.8009C12.0099 57.7267 14.5341 55.2244 17.6365 55.2244C20.7147 55.2244 23.217 57.7267 23.217 60.8009C23.217 61.0707 23.1799 61.3364 23.1451 61.6288ZM56.8528 61.6288C56.4756 64.3629 54.1082 66.425 51.3442 66.425C48.5802 66.425 46.2127 64.3629 45.8396 61.6466C45.8024 61.3631 45.7653 61.0844 45.7653 60.8009C45.7653 57.7267 48.2676 55.2244 51.3442 55.2244C54.4224 55.2244 56.9247 57.7267 56.9247 60.8009C56.9247 61.0836 56.8851 61.3631 56.8528 61.6288ZM67.5058 57.6742C67.5058 59.0037 66.4048 60.0853 65.0487 60.0853H60.4229C60.0522 55.3787 56.146 51.6487 51.3433 51.6487C46.5431 51.6487 42.6362 55.3787 42.2638 60.0853H26.7161C26.3453 55.3787 22.4392 51.6487 17.6365 51.6487C12.812 51.6487 8.8857 55.3787 8.51092 60.0853H6.02799C4.67426 60.0853 3.57334 59.0037 3.57334 57.6742V49.3725C3.57334 48.2433 4.32775 47.2886 5.43513 46.9962L17.2375 44.0448C17.7455 43.9132 18.2189 43.6959 18.672 43.4398V43.6353H46.0811V40.0603H21.5846L25.4391 32.3127C25.8574 31.4759 26.6644 30.9784 27.5932 30.9784H51.9241C52.8263 30.9784 53.6728 31.5018 54.0799 32.3168L58.6144 41.3373C59.1507 42.4706 60.0312 43.3865 61.3065 44.0933L66.1262 46.5043C66.9525 46.9187 67.5058 47.7821 67.5058 48.6585V57.6742Z" fill="#6161FF"/>
<path d="M40.0798 10.8824H58.4094V14.4573H40.0798V10.8824Z" fill="#6161FF"/>
<path d="M40.0798 19.8117H58.4094V23.3866H40.0798V19.8117Z" fill="#6161FF"/>
</svg>
