<svg width="99" height="70" viewBox="0 0 99 70" fill="none" xmlns="http://www.w3.org/2000/svg">
<path fill-rule="evenodd" clip-rule="evenodd" d="M12.8534 11.1722C14.0583 10.8245 15.4811 10.9945 16.7293 11.7433L18.8149 12.9885C20.1935 13.8155 20.9289 15.1689 21.3175 16.428C21.7061 17.6873 21.8212 18.9371 21.9528 19.9766C22.0066 20.4012 22.2497 20.9241 22.9282 21.857C23.2211 22.2593 24.7153 23.0056 25.2961 23.0056H30.3271C31.1958 22.9683 32.0364 23.2091 32.8875 23.8461C33.7386 24.4832 34.4748 25.6625 34.4982 27.0806C34.4983 27.093 34.4983 27.1053 34.4982 27.1177C34.4982 29.3664 32.64 31.2249 30.3913 31.2249H20.3935C19.525 31.2249 18.6875 30.8747 18.0705 30.2563L16.6844 28.87L12.5711 35.0433C11.8528 36.1199 11.4391 37.3699 11.3711 38.6627L9.85663 67.449C9.83354 67.8689 9.65032 68.2637 9.34472 68.5525C9.03911 68.8414 8.63437 69.0022 8.21386 69.0016H1.64278C1.42661 69.0016 1.21258 68.9591 1.01294 68.8762C0.8133 68.7933 0.63198 68.6715 0.479371 68.5184C0.326762 68.3653 0.205865 68.1836 0.123606 67.9837C0.0413479 67.7838 -0.000654146 67.5697 7.7016e-06 67.3535V32.4448C2.74459e-05 30.2582 0.622627 28.1166 1.79679 26.2715L10.0363 13.322C10.6743 12.3199 11.6485 11.5197 12.8534 11.1722ZM13.7646 14.3297C13.4082 14.429 13.0512 14.706 12.8085 15.0872L4.56897 28.0367C3.73033 29.3546 3.28556 30.8832 3.28555 32.4451V65.7115H6.65452L8.08552 38.4839C8.18458 36.6022 8.79211 34.7837 9.83738 33.2156L13.9507 27.0423C15.0819 25.3463 17.5663 25.0994 19.0074 26.5417L20.3935 27.934H30.3913C30.8606 27.934 31.2008 27.5862 31.2062 27.1181C31.1934 26.6946 31.0916 26.6065 30.9175 26.4761C30.7383 26.3408 30.3631 26.2862 30.4554 26.2825C30.434 26.2829 30.4126 26.2829 30.3912 26.2825H25.2961C23.3411 26.2825 21.47 25.4268 20.2715 23.7798C19.4826 22.6945 18.8542 21.6593 18.6929 20.3855C18.5545 19.2915 18.4325 18.208 18.1796 17.3883C17.9266 16.5687 17.6187 16.0917 17.1272 15.797L15.0416 14.5521C14.4914 14.2218 14.121 14.2254 13.7646 14.3297Z" fill="#6161FF"/>
<path fill-rule="evenodd" clip-rule="evenodd" d="M96.8992 11.4999C97.117 11.4967 97.3333 11.5367 97.5355 11.6178C97.7377 11.6989 97.9217 11.8193 98.0769 11.9721C98.2321 12.125 98.3553 12.307 98.4394 12.508C98.5235 12.7089 98.5668 12.9245 98.5668 13.1424C98.5668 13.3602 98.5235 13.5758 98.4394 13.7767C98.3553 13.9777 98.2321 14.1601 98.0769 14.313C97.9217 14.4658 97.7377 14.5862 97.5355 14.6673C97.3333 14.7484 97.117 14.7884 96.8992 14.7852H87.2351C84.3437 14.7852 81.5569 15.8793 79.432 17.84L65.616 30.584C62.9052 33.0856 59.399 34.5541 55.7145 34.7295L36.1809 35.6595C31.5284 35.883 27.9028 39.6907 27.9029 44.3487V54.1925C27.906 54.4102 27.8657 54.6261 27.7846 54.8281C27.7034 55.0301 27.5829 55.2142 27.43 55.3692C27.2772 55.5242 27.095 55.6471 26.8942 55.7311C26.6934 55.8151 26.4778 55.8585 26.2601 55.8585C26.0424 55.8585 25.8269 55.8151 25.626 55.7311C25.4252 55.6471 25.2431 55.5242 25.0902 55.3692C24.9374 55.2142 24.8169 55.0301 24.7357 54.8281C24.6545 54.6261 24.6143 54.4102 24.6174 54.1925V44.3487C24.6173 37.9705 29.656 32.6839 36.0269 32.3807L55.5605 31.4507C58.4746 31.3129 61.2453 30.1501 63.3893 28.1712L77.2053 15.4207C79.9364 12.9004 83.5189 11.4999 87.2351 11.4999H96.8992Z" fill="#6161FF"/>
<path fill-rule="evenodd" clip-rule="evenodd" d="M96.8995 18.0706C97.1173 18.0673 97.3336 18.1074 97.5357 18.1885C97.7379 18.2696 97.9219 18.3903 98.0771 18.5432C98.2323 18.6961 98.3555 18.8781 98.4396 19.079C98.5238 19.28 98.5671 19.4956 98.5671 19.7134C98.5671 19.9312 98.5238 20.1469 98.4396 20.3478C98.3555 20.5487 98.2323 20.7312 98.0771 20.884C97.9219 21.0369 97.7379 21.1573 97.5357 21.2384C97.3336 21.3194 97.1173 21.3595 96.8995 21.3562H86.7477C86.3116 21.3562 85.8944 21.5303 85.5862 21.8382L76.2237 31.2134H96.8995C97.1173 31.2101 97.3336 31.2501 97.5357 31.3312C97.7379 31.4123 97.9219 31.5327 98.0771 31.6855C98.2323 31.8384 98.3555 32.0208 98.4397 32.2218C98.5238 32.4227 98.5671 32.6383 98.5671 32.8562C98.5671 33.074 98.5238 33.2896 98.4397 33.4905C98.3555 33.6915 98.2323 33.8735 98.0771 34.0264C97.9219 34.1793 97.7379 34.3 97.5357 34.3811C97.3336 34.4622 97.1173 34.5022 96.8995 34.499H72.2579C71.9331 34.4988 71.6156 34.4025 71.3456 34.2219C71.0755 34.0414 70.8651 33.7846 70.7408 33.4845C70.6165 33.1844 70.5839 32.8542 70.6472 32.5356C70.7105 32.217 70.8669 31.9244 71.0964 31.6946L83.2632 19.5213C84.1868 18.5974 85.4411 18.0714 86.7477 18.0714L96.8995 18.0706Z" fill="#6161FF"/>
<path fill-rule="evenodd" clip-rule="evenodd" d="M95.2563 37.7842C95.4741 37.781 95.6904 37.821 95.8926 37.9021C96.0947 37.9832 96.2788 38.1036 96.4339 38.2564C96.5891 38.4093 96.7124 38.5913 96.7965 38.7923C96.8806 38.9932 96.9239 39.2088 96.9239 39.4267C96.9239 39.6445 96.8806 39.8605 96.7965 40.0614C96.7124 40.2624 96.5891 40.4444 96.4339 40.5973C96.2788 40.7501 96.0947 40.8705 95.8926 40.9516C95.6904 41.0327 95.4741 41.0727 95.2563 41.0695H90.3729C90.1551 41.0727 89.9388 41.0327 89.7367 40.9516C89.5345 40.8705 89.3505 40.7501 89.1953 40.5973C89.0401 40.4444 88.9169 40.2624 88.8328 40.0614C88.7486 39.8605 88.7053 39.6445 88.7053 39.4267C88.7053 39.2088 88.7486 38.9932 88.8328 38.7923C88.9169 38.5913 89.0401 38.4093 89.1953 38.2564C89.3505 38.1036 89.5345 37.9832 89.7367 37.9021C89.9388 37.821 90.1551 37.781 90.3729 37.7842H95.2563Z" fill="#6161FF"/>
<path fill-rule="evenodd" clip-rule="evenodd" d="M32.812 52.5686C33.0294 52.566 33.2452 52.6062 33.4469 52.6876C33.6485 52.769 33.832 52.8899 33.9867 53.0427C34.1414 53.1955 34.2642 53.3775 34.348 53.5782C34.4319 53.7788 34.475 53.994 34.475 54.2114C34.475 54.4289 34.4319 54.644 34.348 54.8447C34.2642 55.0453 34.1414 55.2273 33.9867 55.3801C33.832 55.5329 33.6485 55.6535 33.4469 55.7348C33.2452 55.8162 33.0294 55.8569 32.812 55.8542H27.9029C26.9762 55.8542 26.2602 56.5708 26.2602 57.497C26.2602 58.4234 26.9762 59.1398 27.9029 59.1398H34.4483C34.6662 59.1365 34.8824 59.1766 35.0846 59.2577C35.2868 59.3387 35.4708 59.4591 35.626 59.612C35.7812 59.7649 35.9044 59.9469 35.9885 60.1478C36.0726 60.3488 36.1159 60.5648 36.1159 60.7826C36.1159 61.0004 36.0726 61.216 35.9885 61.417C35.9044 61.6179 35.7812 61.8 35.626 61.9528C35.4708 62.1057 35.2868 62.2261 35.0846 62.3072C34.8824 62.3882 34.6662 62.4283 34.4483 62.425H27.9029C25.6565 62.425 24.0453 60.7426 23.4623 58.6714C23.307 58.5178 23.1839 58.335 23.1002 58.1333C23.0164 57.9316 22.9738 57.715 22.9746 57.4966C22.9746 54.7943 25.2006 52.5682 27.9029 52.5682L32.812 52.5686Z" fill="#6161FF"/>
<path d="M50.9017 42.712C43.6629 42.712 37.7595 48.6157 37.7595 55.8544C37.7595 63.0931 43.6629 68.9964 50.9017 68.9964C58.1404 68.9964 64.0439 63.0931 64.0438 55.8544C64.0439 48.6157 58.1404 42.712 50.9017 42.712ZM50.9017 45.9976C56.3648 45.9976 60.7583 50.3914 60.7583 55.8544C60.7583 61.3176 56.3648 65.7108 50.9017 65.7108C45.4386 65.7108 41.045 61.3176 41.0451 55.8544C41.045 50.3914 45.4386 45.9976 50.9017 45.9976Z" fill="#6161FF"/>
<path d="M50.9016 49.2831C47.292 49.2831 44.3306 52.2448 44.3306 55.8543C44.3306 59.4641 47.292 62.4251 50.9016 62.4251C54.5113 62.4251 57.4727 59.4641 57.4727 55.8543C57.4727 52.2448 54.5113 49.2831 50.9016 49.2831ZM50.9016 52.5687C52.7357 52.5687 54.1872 54.0203 54.1872 55.8543C54.1872 57.6883 52.7357 59.1399 50.9016 59.1399C49.0676 59.1399 47.6161 57.6883 47.6161 55.8543C47.6161 54.0203 49.0676 52.5687 50.9016 52.5687Z" fill="#6161FF"/>
<path fill-rule="evenodd" clip-rule="evenodd" d="M96.8993 59.1403C97.1171 59.137 97.3334 59.177 97.5356 59.2581C97.7377 59.3392 97.9218 59.4596 98.0769 59.6124C98.2321 59.7653 98.3554 59.9474 98.4395 60.1483C98.5236 60.3492 98.5669 60.5652 98.5669 60.7831C98.5669 61.0009 98.5236 61.2165 98.4395 61.4174C98.3554 61.6184 98.2321 61.8004 98.0769 61.9533C97.9218 62.1062 97.7377 62.2265 97.5356 62.3076C97.3334 62.3887 97.1171 62.4287 96.8993 62.4255H67.3551C67.1373 62.4287 66.921 62.3887 66.7188 62.3076C66.5167 62.2265 66.3326 62.1062 66.1775 61.9533C66.0223 61.8004 65.899 61.6184 65.8149 61.4174C65.7308 61.2165 65.6875 61.0009 65.6875 60.7831C65.6875 60.5652 65.7308 60.3492 65.8149 60.1483C65.899 59.9474 66.0223 59.7653 66.1775 59.6124C66.3326 59.4596 66.5167 59.3392 66.7188 59.2581C66.921 59.177 67.1373 59.137 67.3551 59.1403H96.8993Z" fill="#6161FF"/>
<path fill-rule="evenodd" clip-rule="evenodd" d="M96.8994 52.5687C97.1168 52.5661 97.3326 52.6064 97.5343 52.6877C97.7359 52.7691 97.9194 52.89 98.0741 53.0428C98.2288 53.1956 98.3516 53.3776 98.4354 53.5783C98.5193 53.7789 98.5624 53.9941 98.5624 54.2115C98.5624 54.429 98.5193 54.6441 98.4354 54.8448C98.3516 55.0454 98.2288 55.2274 98.0741 55.3802C97.9194 55.5331 97.7359 55.6536 97.5343 55.7349C97.3326 55.8163 97.1168 55.857 96.8994 55.8543H75.569C75.3516 55.857 75.1358 55.8163 74.9342 55.7349C74.7325 55.6536 74.549 55.5331 74.3943 55.3802C74.2396 55.2274 74.1168 55.0454 74.033 54.8448C73.9492 54.6441 73.906 54.429 73.906 54.2115C73.906 53.9941 73.9492 53.7789 74.033 53.5783C74.1168 53.3776 74.2396 53.1956 74.3943 53.0428C74.549 52.89 74.7325 52.7691 74.9342 52.6877C75.1358 52.6064 75.3516 52.5661 75.569 52.5687H96.8994Z" fill="#6161FF"/>
<path fill-rule="evenodd" clip-rule="evenodd" d="M39.4281 6.57104C39.6645 6.57109 39.898 6.62215 40.1129 6.72073C40.3277 6.81932 40.5188 6.96297 40.673 7.14214L61.1819 30.9625L58.6921 33.1055L38.6709 9.85626H34.4998V6.57104H39.4281Z" fill="#6161FF"/>
<path fill-rule="evenodd" clip-rule="evenodd" d="M88.6852 19.7133V32.8556H85.3997V19.7133H88.6852Z" fill="#6161FF"/>
<path fill-rule="evenodd" clip-rule="evenodd" d="M47.6418 19.7133H50.9273L50.9017 32.8556H47.6162L47.6418 19.7133Z" fill="#6161FF"/>
<path d="M22.9988 0C26.6085 0 29.5699 2.96158 29.5699 6.57118C29.5699 10.1809 26.6085 13.142 22.9988 13.142C19.3892 13.142 16.4277 10.1809 16.4277 6.57118C16.4277 2.96158 19.3892 0 22.9988 0ZM22.9988 3.28559C21.1648 3.28559 19.7133 4.7372 19.7133 6.57118C19.7133 8.40517 21.1648 9.85677 22.9988 9.85677C24.8328 9.85677 26.2844 8.40517 26.2844 6.57118C26.2844 4.7372 24.8328 3.28559 22.9988 3.28559Z" fill="#6161FF"/>
</svg>
