<svg width="106" height="56" viewBox="0 0 106 56" fill="none" xmlns="http://www.w3.org/2000/svg">
<path d="M99.6565 21.2628L91.2118 17.4067L83.758 5.5151C81.6037 2.06826 77.8122 -0.0213777 73.7407 0.000164968H41.9867C38.3029 0.000164968 34.813 1.70204 32.5726 4.63184L22.943 17.2343L6.89366 21.629C2.82209 22.7493 0 26.4761 0 30.6985V36.8382C0 42.03 4.1362 46.317 9.32799 46.317H10.7067C12.3655 52.7152 18.8929 56.5498 25.2911 54.891C29.492 53.7923 32.788 50.5178 33.8651 46.317H70.0569C71.7156 52.7152 78.2431 56.5498 84.6413 54.891C88.8421 53.7923 92.1381 50.5178 93.2153 46.317H95.8004C100.992 46.317 105.128 42.03 105.128 36.8382V29.8368C105.15 26.153 102.996 22.7923 99.6565 21.2628ZM22.2752 50.9271C18.0528 50.9271 14.6275 47.5018 14.6275 43.2795C14.6275 39.0571 18.0528 35.6318 22.2752 35.6318C26.4975 35.6318 29.9228 39.0571 29.9228 43.2795C29.9443 47.4803 26.5191 50.9056 22.2752 50.9271ZM81.6253 50.9271C77.4029 50.9271 73.9776 47.5018 73.9776 43.2795C73.9776 39.0571 77.4029 35.6318 81.6253 35.6318C85.8476 35.6318 89.2729 39.0571 89.2729 43.2795C89.2945 47.4803 85.8692 50.9056 81.6253 50.9271ZM95.8004 42.0084H93.5169C92.8059 35.4379 86.8817 30.6985 80.3112 31.431C74.7316 32.0342 70.3369 36.4504 69.7337 42.0084H34.1667C33.4558 35.4379 27.5316 30.6985 20.961 31.431C15.3815 32.0342 10.9868 36.4504 10.3836 42.0084H9.30645C6.48435 42.0084 4.287 39.6603 4.287 36.8382V30.6985C4.26545 28.3934 5.79499 26.39 8.01388 25.7652L24.7956 21.1766C25.248 21.0474 25.6574 20.7889 25.9374 20.4011L35.9763 7.23851C37.4197 5.38584 39.6386 4.3087 41.9867 4.3087H73.7407C76.3258 4.28716 78.7601 5.60127 80.1173 7.79862L87.9158 20.2503C88.1312 20.6165 88.4759 20.8966 88.8421 21.0689L97.8469 25.1836C99.6565 26.0238 100.82 27.8333 100.798 29.8368V36.8382H100.82C100.82 39.6603 98.6225 42.0084 95.8004 42.0084Z" fill="#6161FF"/>
</svg>
