<svg width="63" height="63" viewBox="0 0 63 63" fill="none" xmlns="http://www.w3.org/2000/svg">
<path d="M9.99265 3.3252C6.43421 3.3252 3.53906 6.22022 3.53906 9.77866C3.53906 13.3371 6.43409 16.2321 9.99253 16.2321C13.551 16.2321 16.4461 13.3371 16.4461 9.77866C16.4461 6.22022 13.5511 3.3252 9.99265 3.3252ZM9.99265 14.4155C7.43587 14.4155 5.35576 12.3354 5.35576 9.77866C5.35576 7.22188 7.43587 5.14178 9.99265 5.14178C12.5494 5.14178 14.6295 7.22188 14.6295 9.77866C14.6295 12.3354 12.5493 14.4155 9.99265 14.4155Z" fill="black"/>
<path d="M19.2392 9.77739C19.2392 4.6785 15.091 0.530273 9.99224 0.530273C4.89322 0.530273 0.745117 4.6785 0.745117 9.77739C0.745117 17.8987 9.02594 25.5842 9.37848 25.9074L9.99224 26.4702L10.0159 26.4485H13.6254V24.6319H11.8803C14.2885 22.0758 19.2392 16.0574 19.2392 9.77739ZM9.99224 23.9655C8.11159 22.0518 2.56182 15.8863 2.56182 9.77739C2.5617 5.68016 5.895 2.34685 9.99224 2.34685C14.0894 2.34685 17.4228 5.68016 17.4228 9.77739C17.4227 15.8863 11.8729 22.0519 9.99224 23.9655Z" fill="black"/>
<path d="M52.2768 36.792C48.3516 36.792 45.1582 39.9854 45.1582 43.9106C45.1582 47.8358 48.3516 51.0291 52.2768 51.0291C56.202 51.0291 59.3953 47.8357 59.3953 43.9106C59.3955 39.9853 56.2019 36.792 52.2768 36.792ZM52.2768 49.2126C49.3533 49.2126 46.9748 46.834 46.9748 43.9106C46.9748 40.9871 49.3533 38.6086 52.2768 38.6086C55.2004 38.6086 57.5788 40.9871 57.5788 43.9106C57.5789 46.834 55.2004 49.2126 52.2768 49.2126Z" fill="black"/>
<path d="M52.2766 33.6631C46.6262 33.6631 42.0293 38.26 42.0293 43.9104C42.0293 51.1187 47.8937 58.0271 50.4775 60.7209H48.6067V62.5375H52.2398V62.4239L52.2766 62.4576L52.8904 61.8948C53.2837 61.5342 62.5238 52.9584 62.5238 43.9104C62.524 38.26 57.9269 33.6631 52.2766 33.6631ZM52.2763 59.9558C50.24 57.9001 43.846 50.8883 43.846 43.9104C43.846 39.2617 47.628 35.4797 52.2767 35.4797C56.9255 35.4797 60.7075 39.2617 60.7075 43.9104C60.7074 50.8785 54.3117 57.8986 52.2763 59.9558Z" fill="black"/>
<path d="M22.8722 43.9365C21.7659 44.6922 20.8317 45.6428 20.0957 46.7619L21.6134 47.7602C22.2188 46.8399 22.987 46.058 23.8968 45.4365L22.8722 43.9365Z" fill="black"/>
<path d="M20.891 24.6328H17.2578V26.4494H20.891V24.6328Z" fill="black"/>
<path d="M38.9271 27.751L37.5918 28.9826C38.337 29.7905 38.8946 30.7244 39.2492 31.758L40.9675 31.1686C40.5307 29.895 39.844 28.7453 38.9271 27.751Z" fill="black"/>
<path d="M44.973 60.7197H41.3398V62.5363H44.973V60.7197Z" fill="black"/>
<path d="M36.6219 40.5244C35.7535 41.1973 34.7755 41.672 33.7148 41.9357L34.153 43.6986C35.4603 43.3737 36.6655 42.7887 37.7346 41.9602L36.6219 40.5244Z" fill="black"/>
<path d="M37.7064 60.7197H34.0732V62.5363H37.7064V60.7197Z" fill="black"/>
<path d="M39.645 34.9668C39.5545 36.0598 39.2433 37.1013 38.7197 38.0624L40.3149 38.9314C40.9603 37.7469 41.344 36.4634 41.4554 35.1167L39.645 34.9668Z" fill="black"/>
<path d="M20.2424 52.3514C20.2424 51.8211 20.2923 51.2907 20.3906 50.7746L18.6061 50.4346C18.4865 51.0624 18.4258 51.7073 18.4258 52.3514C18.4258 53.0389 18.4948 53.7265 18.6311 54.395L20.4111 54.0322C20.2992 53.483 20.2424 52.9175 20.2424 52.3514Z" fill="black"/>
<path d="M31.8128 24.6328H31.791V26.4494H31.8128C32.907 26.4494 33.9653 26.6696 34.9585 27.104L35.6865 25.4396C34.4624 24.9043 33.159 24.6328 31.8128 24.6328Z" fill="black"/>
<path d="M28.6096 60.7202C28.0656 60.7202 27.5217 60.6678 26.9932 60.5645L26.6445 62.3472C27.2877 62.4731 27.9488 62.5368 28.6096 62.5368H30.4403V60.7202H28.6096Z" fill="black"/>
<path d="M21.672 57.0312L20.167 58.0487C20.9174 59.1586 21.8634 60.0974 22.9791 60.8387L23.9846 59.3257C23.0671 58.7161 22.2891 57.9441 21.672 57.0312Z" fill="black"/>
<path d="M28.1576 24.6328H24.5244V26.4494H28.1576V24.6328Z" fill="black"/>
<path d="M28.6102 42.167C27.9061 42.167 27.2023 42.2394 26.5186 42.3821L26.8897 44.1604C27.4517 44.043 28.0306 43.9836 28.6102 43.9836H30.3231V42.167H28.6102Z" fill="black"/>
</svg>
