<svg width="47" height="63" viewBox="0 0 47 63" fill="none" xmlns="http://www.w3.org/2000/svg">
<path d="M24.5575 22.319H21.9629C20.8189 22.319 19.888 21.3882 19.888 20.2439C19.888 19.0999 20.8189 18.1691 21.9629 18.1691H27.1516C28.1548 18.1691 28.9682 17.3557 28.9682 16.3525C28.9682 15.3492 28.1548 14.5359 27.1516 14.5359H25.0766V12.4611C25.0766 11.4579 24.2632 10.6445 23.26 10.6445C22.2567 10.6445 21.4434 11.4579 21.4434 12.4611V14.5607C18.5387 14.8241 16.2549 17.2719 16.2549 20.2441C16.2549 23.3916 18.8155 25.9523 21.9629 25.9523H24.5575C25.7016 25.9523 26.6324 26.8831 26.6324 28.0272C26.6324 29.1712 25.7017 30.102 24.5575 30.102H19.3685C18.3653 30.102 17.5519 30.9154 17.5519 31.9186C17.5519 32.9219 18.3653 33.7352 19.3685 33.7352H21.4434V35.8101C21.4434 36.8133 22.2567 37.6267 23.26 37.6267C24.2632 37.6267 25.0766 36.8133 25.0766 35.8101V33.7105C27.9815 33.4472 30.2656 30.9994 30.2656 28.027C30.2656 24.8796 27.705 22.319 24.5575 22.319Z" fill="black"/>
<path d="M32.9889 43.7217H13.5314C12.5282 43.7217 11.7148 44.535 11.7148 45.5383C11.7148 46.5415 12.5282 47.3548 13.5314 47.3548H32.9889C33.9922 47.3548 34.8055 46.5415 34.8055 45.5383C34.8055 44.535 33.9922 43.7217 32.9889 43.7217Z" fill="black"/>
<path d="M44.6633 0.915039H1.85662C0.853383 0.915039 0.0400391 1.72838 0.0400391 2.73162V55.7535C0.0400391 56.2353 0.231507 56.6973 0.572177 57.0381L5.9231 62.389C6.63241 63.0984 7.78267 63.0984 8.49211 62.389L12.5585 58.3226L16.6247 62.389C16.9654 62.7297 17.4274 62.9211 17.9093 62.9211C18.391 62.9211 18.8532 62.7298 19.1938 62.389L23.2599 58.3226L27.3263 62.389C27.667 62.7297 28.129 62.9211 28.6107 62.9211C29.0926 62.9211 29.5546 62.7297 29.8953 62.389L33.9615 58.3226L38.0279 62.389C38.3826 62.7437 38.8474 62.9211 39.3123 62.9211C39.7773 62.9211 40.2422 62.7438 40.5969 62.389L45.9478 57.0381C46.2885 56.6974 46.48 56.2353 46.48 55.7535V2.73162C46.4798 1.72838 45.6666 0.915039 44.6633 0.915039ZM39.3123 58.5354L35.246 54.4691C34.9053 54.1284 34.4432 53.9369 33.9614 53.9369C33.4795 53.9369 33.0175 54.1284 32.6768 54.4691L28.6106 58.5354L24.5443 54.4691C23.8349 53.7596 22.6847 53.7596 21.9753 54.4691L17.9089 58.5354L13.8427 54.4691C13.502 54.1284 13.04 53.9369 12.5581 53.9369C12.0763 53.9369 11.6143 54.1283 11.2737 54.4691L7.2073 58.5354L3.67296 55.0011V4.5482H42.8466V55.0011H42.8467L39.3123 58.5354Z" fill="black"/>
</svg>
