<svg width="63" height="63" viewBox="0 0 63 63" fill="none" xmlns="http://www.w3.org/2000/svg">
<path d="M31.7372 62.9211C27.6655 62.9286 23.6325 62.1314 19.87 60.5754C16.1074 59.0194 12.6895 56.7351 9.81246 53.8539C-2.27863 41.7629 -2.27863 22.0906 9.81246 9.99958C12.6851 7.11076 16.1023 4.82039 19.8662 3.26105C23.6299 1.7017 27.6656 0.904342 31.7397 0.915147C40.0228 0.915147 47.8099 4.14009 53.6644 9.99958C59.5214 15.8566 62.7488 23.6435 62.7488 31.9268C62.7488 40.21 59.5238 47.9969 53.6644 53.8539C50.7868 56.7351 47.3684 59.0194 43.6055 60.5754C39.8425 62.1314 35.8092 62.9285 31.7372 62.9211ZM31.7397 5.8766C28.3173 5.86689 24.9271 6.53634 21.7653 7.84619C18.6035 9.15604 15.7331 11.0802 13.3202 13.5073C8.40092 18.4267 5.69195 24.9683 5.69195 31.9268C5.69195 38.8852 8.40092 45.4245 13.3202 50.3462C23.4763 60.5023 40.003 60.5048 50.1567 50.3462C55.0759 45.427 57.7873 38.8852 57.7873 31.9268C57.7873 24.9683 55.0783 18.4291 50.1567 13.5073C47.7437 11.0809 44.8736 9.15725 41.7124 7.84744C38.5511 6.53764 35.1616 5.86777 31.7397 5.8766Z" fill="black"/>
<path d="M21.2132 44.9299C20.7221 44.931 20.2417 44.7862 19.8331 44.5139C19.4245 44.2414 19.106 43.8537 18.9181 43.4C18.7301 42.9463 18.6814 42.447 18.7776 41.9654C18.874 41.4839 19.1113 41.0418 19.4594 40.6954L40.5084 19.6464C40.7387 19.4161 41.0121 19.2334 41.3131 19.1086C41.6139 18.984 41.9365 18.9199 42.2622 18.9199C42.5879 18.9199 42.9105 18.984 43.2114 19.1086C43.5123 19.2334 43.7858 19.4161 44.0161 19.6464C44.2464 19.8767 44.4292 20.1501 44.5538 20.4511C44.6784 20.752 44.7426 21.0745 44.7426 21.4002C44.7426 21.7259 44.6784 22.0485 44.5538 22.3495C44.4292 22.6503 44.2464 22.9238 44.0161 23.1541L22.9671 44.2032C22.7373 44.4343 22.464 44.6176 22.1629 44.7423C21.862 44.8671 21.5391 44.9309 21.2132 44.9299Z" fill="black"/>
<path d="M42.2638 44.9299C41.9379 44.9303 41.6153 44.8663 41.3144 44.7415C41.0133 44.6168 40.74 44.4338 40.5099 44.2032L19.4608 23.1541C19.2305 22.9238 19.0479 22.6503 18.9232 22.3495C18.7986 22.0485 18.7344 21.7259 18.7344 21.4002C18.7344 21.0745 18.7986 20.752 18.9232 20.4511C19.0479 20.1501 19.2305 19.8767 19.4608 19.6464C19.6912 19.4161 19.9647 19.2334 20.2655 19.1086C20.5665 18.984 20.8891 18.9199 21.2148 18.9199C21.5405 18.9199 21.863 18.984 22.1639 19.1086C22.4649 19.2334 22.7384 19.4161 22.9687 19.6464L44.0176 40.6954C44.3657 41.0418 44.603 41.4839 44.6993 41.9654C44.7956 42.447 44.7467 42.9463 44.5589 43.4C44.3709 43.8537 44.0525 44.2414 43.6439 44.5139C43.2351 44.7862 42.7549 44.931 42.2638 44.9299Z" fill="black"/>
</svg>
