<svg width="106" height="92" viewBox="0 0 106 92" fill="none" xmlns="http://www.w3.org/2000/svg">
<path fill-rule="evenodd" clip-rule="evenodd" d="M0 10.8121C0 4.88685 4.71512 0 10.6334 0H85.6926C91.6112 0 96.3261 4.88685 96.3261 10.8121V34.4022C96.3261 35.6686 95.2991 36.6957 94.0326 36.6957C92.7662 36.6957 91.7391 35.6686 91.7391 34.4022V10.8121C91.7391 7.32799 88.9865 4.58696 85.6926 4.58696H10.6334C7.33964 4.58696 4.58696 7.32799 4.58696 10.8121V53.4055C4.58696 56.8893 7.33964 59.6304 10.6334 59.6304H43.5761C44.8425 59.6304 45.8696 60.6575 45.8696 61.9239C45.8696 63.1904 44.8425 64.2174 43.5761 64.2174H10.6334C4.71512 64.2174 0 59.3305 0 53.4055V10.8121Z" fill="#6161FF"/>
<path fill-rule="evenodd" clip-rule="evenodd" d="M0 16.0545C0 14.7878 1.02683 13.761 2.29348 13.761H94.0326C95.2991 13.761 96.3261 14.7878 96.3261 16.0545C96.3261 17.3211 95.2991 18.3479 94.0326 18.3479H2.29348C1.02683 18.3479 0 17.3211 0 16.0545Z" fill="#6161FF"/>
<path fill-rule="evenodd" clip-rule="evenodd" d="M9.17383 38.9893C9.17383 37.7228 10.2007 36.6958 11.4673 36.6958H20.6412C21.9079 36.6958 22.9347 37.7228 22.9347 38.9893C22.9347 40.2557 21.9079 41.2828 20.6412 41.2828H11.4673C10.2007 41.2828 9.17383 40.2557 9.17383 38.9893Z" fill="#6161FF"/>
<path fill-rule="evenodd" clip-rule="evenodd" d="M9.17383 50.4566C9.17383 49.1901 10.2007 48.1631 11.4673 48.1631H29.8151C31.0818 48.1631 32.1086 49.1901 32.1086 50.4566C32.1086 51.723 31.0818 52.75 29.8151 52.75H11.4673C10.2007 52.75 9.17383 51.723 9.17383 50.4566Z" fill="#6161FF"/>
<path fill-rule="evenodd" clip-rule="evenodd" d="M80.2717 45.8697C68.8718 45.8697 59.6304 55.111 59.6304 66.511C59.6304 77.9109 68.8718 87.1523 80.2717 87.1523C91.6717 87.1523 100.913 77.9109 100.913 66.511C100.913 55.111 91.6717 45.8697 80.2717 45.8697ZM55.0435 66.511C55.0435 52.5776 66.3384 41.2827 80.2717 41.2827C94.2051 41.2827 105.5 52.5776 105.5 66.511C105.5 80.4443 94.2051 91.7392 80.2717 91.7392C66.3384 91.7392 55.0435 80.4443 55.0435 66.511Z" fill="#6161FF"/>
<path fill-rule="evenodd" clip-rule="evenodd" d="M87.8238 62.5956C88.7196 61.7002 90.1718 61.7002 91.0677 62.5956C91.963 63.4914 91.963 64.9437 91.0677 65.8395L81.8938 75.0134C80.9979 75.9088 79.5457 75.9088 78.6499 75.0134L71.7694 68.133C70.8741 67.2371 70.8741 65.7849 71.7694 64.8891C72.6653 63.9937 74.1175 63.9937 75.0133 64.8891L80.2718 70.148L87.8238 62.5956Z" fill="#6161FF"/>
</svg>
