<svg width="43" height="70" viewBox="0 0 43 70" fill="none" xmlns="http://www.w3.org/2000/svg">
<path d="M24.5701 4.63597H17.6165C16.3363 4.63597 15.2986 5.67369 15.2986 6.95385V9.27173C15.2986 10.5519 16.3363 11.5896 17.6165 11.5896H24.5701C25.8503 11.5896 26.888 10.5519 26.888 9.27173V6.95385C26.888 5.67369 25.8503 4.63597 24.5701 4.63597ZM17.6165 9.27173V6.95385H24.5701V9.27173H17.6165Z" fill="#6161FF"/>
<path d="M28.1238 0H14.0616C12.1203 0 10.5465 1.56693 10.5465 3.50021V14.223C4.44099 15.3526 0.0101919 20.6509 0 26.8332V52.5C0.00482774 56.8365 2.20843 60.8772 5.85928 63.2426V65.3334C5.85928 67.9108 7.95774 70 10.5465 70H31.6389C34.2277 70 36.3267 67.9108 36.3267 65.3334V63.2426C39.977 60.8772 42.1811 56.8365 42.1854 52.5V26.8332C42.1758 20.6509 37.7444 15.3526 31.6389 14.223V3.50021C31.6389 1.56693 30.0651 0 28.1238 0ZM12.8901 3.50021C12.8901 2.85561 13.4147 2.3333 14.0616 2.3333H28.1238C28.7707 2.3333 29.2953 2.85561 29.2953 3.50021V13.9998H12.8901V3.50021ZM33.9825 64.457V65.3334C33.9825 66.6221 32.9333 67.6667 31.6389 67.6667H10.5465C9.25212 67.6667 8.20289 66.6221 8.20289 65.3334V64.457C8.37132 64.5227 8.54619 64.574 8.71838 64.6301C8.89057 64.6856 9.03004 64.7406 9.18721 64.7887C9.42162 64.856 9.64746 64.9051 9.87972 64.966C10.053 65.0076 10.223 65.0536 10.3974 65.0824C10.6473 65.1315 10.9005 65.163 11.1521 65.1994C11.3114 65.2213 11.4686 65.2506 11.6301 65.2666C12.0474 65.3067 12.4669 65.3297 12.8874 65.3297H29.2953C29.7164 65.3297 30.1359 65.3067 30.5527 65.2666C30.7147 65.2506 30.8719 65.2213 31.0312 65.1994C31.2828 65.1652 31.5359 65.1337 31.7854 65.0824C31.9602 65.0477 32.1303 65.0018 32.3036 64.966C32.538 64.911 32.7724 64.856 32.9961 64.7887C33.1554 64.7406 33.3115 64.6835 33.4649 64.6301C33.6183 64.5761 33.8141 64.5227 33.9825 64.457ZM39.8418 26.8332V52.5C39.8193 56.7207 37.2815 60.5253 33.3828 62.1835C33.2927 62.2209 33.1978 62.2487 33.1076 62.2834C32.8073 62.4004 32.5042 62.504 32.1947 62.5916C32.0659 62.6279 31.9356 62.6594 31.8041 62.692C31.5113 62.763 31.2152 62.8217 30.9148 62.8682C30.7978 62.8858 30.6804 62.9077 30.5554 62.9232C30.137 62.9734 29.7164 62.999 29.2953 63.0001H12.8901C12.469 62.9974 12.0485 62.9702 11.6301 62.9184C11.5131 62.9029 11.3903 62.881 11.2707 62.8634C10.9708 62.8169 10.6742 62.7582 10.3813 62.6871C10.2499 62.6546 10.12 62.6231 9.99076 62.5867C9.68179 62.4997 9.37817 62.3945 9.07832 62.2791C8.98766 62.2439 8.89272 62.2161 8.8026 62.1787C4.90553 60.5215 2.36828 56.7191 2.3436 52.5V26.8332C2.35058 21.0371 7.06836 16.3406 12.8901 16.3331H29.2953C35.1171 16.3406 39.8348 21.0371 39.8418 26.8332Z" fill="#6161FF"/>
<path d="M24.9055 35.3922C22.7963 33.7026 20.9741 32.2366 20.9741 30.4833C21.0658 29.8675 21.4354 29.3266 21.9772 29.0168C22.4659 28.6787 22.6595 28.0511 22.4455 27.4973C22.2309 26.9366 21.6618 26.5937 21.0642 26.6648C16.8458 27.1678 14.8755 32.1515 14.8755 35.3606C14.9677 36.9144 15.4918 38.4119 16.3887 39.6853C16.7986 40.2438 17.0818 40.8843 17.2191 41.5627C17.2191 42.6145 16.8785 42.6145 16.5164 42.6145C15.9934 42.6145 15.73 42.5054 15.656 42.4027C15.5272 41.9864 15.5594 41.537 15.7461 41.1427C15.9295 40.6093 15.7257 40.0197 15.252 39.712C14.7725 39.4252 14.1631 39.4745 13.7366 39.8351C11.8763 41.5445 10.7708 43.9195 10.6619 46.44C10.6619 51.6126 14.604 54.7019 21.2085 54.7019C27.8129 54.7019 31.7546 51.6126 31.7546 46.44C31.7546 40.8832 27.9567 37.8389 24.9055 35.3922ZM21.2085 52.3644C18.145 52.3644 13.0055 51.5939 13.0055 46.44C13.0178 45.4828 13.2587 44.5428 13.7088 43.698C13.7227 43.7188 13.7356 43.7386 13.7506 43.7574C14.4125 44.5963 15.4548 45.0441 16.5207 44.9483C17.9937 44.9483 19.5676 44.0602 19.5676 41.5589C19.4646 40.4509 19.0644 39.391 18.4089 38.4911C17.7394 37.5708 17.3307 36.4879 17.2239 35.3564C17.2572 33.7411 17.7486 32.1681 18.6406 30.8199C18.8166 33.5084 21.0631 35.313 23.4373 37.2145C26.3737 39.5697 29.4136 42.0068 29.4136 46.44C29.4109 51.5939 24.2715 52.3644 21.2085 52.3644Z" fill="#6161FF"/>
</svg>
