<svg width="70" height="70" viewBox="0 0 70 70" fill="none" xmlns="http://www.w3.org/2000/svg">
<mask id="mask0_77_180" style="mask-type:luminance" maskUnits="userSpaceOnUse" x="0" y="0" width="70" height="70">
<path d="M0 0.000106812H69.9999V70H0V0.000106812Z" fill="white"/>
</mask>
<g mask="url(#mask0_77_180)">
<path d="M35 1.36659C33.4962 1.36659 32.2656 2.59706 32.2656 4.10096V9.56971C32.2656 11.0736 33.4961 12.3041 34.9999 12.3041C36.5038 12.3041 37.7344 11.0736 37.7344 9.56971V4.10096C37.7344 2.59706 36.5039 1.36659 35 1.36659Z" stroke="#6161FF" stroke-width="3" stroke-miterlimit="22.926" stroke-linecap="round" stroke-linejoin="round"/>
<path d="M18.5937 1.36659C17.0898 1.36659 15.8594 2.59706 15.8594 4.10096V9.56971C15.8594 11.0736 17.0898 12.3041 18.5937 12.3041C20.0976 12.3041 21.3281 11.0736 21.3281 9.56971V4.10096C21.3281 2.59706 20.0976 1.36659 18.5937 1.36659Z" stroke="#6161FF" stroke-width="3" stroke-miterlimit="22.926" stroke-linecap="round" stroke-linejoin="round"/>
<path d="M51.4062 1.36659C49.9025 1.36659 48.6719 2.59706 48.6719 4.10096V9.56971C48.6719 11.0736 49.9023 12.3041 51.4061 12.3041C52.91 12.3041 54.1406 11.0736 54.1406 9.56971V4.10096C54.1406 2.59706 52.9101 1.36659 51.4062 1.36659Z" stroke="#6161FF" stroke-width="3" stroke-miterlimit="22.926" stroke-linecap="round" stroke-linejoin="round"/>
<path d="M44.5703 68.6326H10.3906C8.88672 68.6326 7.65625 67.4021 7.65625 65.8982V9.56984C7.65625 8.0658 8.88672 6.83547 10.3906 6.83547H15.0732M54.3115 6.83547H59.6093C61.1132 6.83547 62.3437 8.06594 62.3437 9.56984V65.8982C62.3437 67.4021 61.1132 68.6326 59.6093 68.6326H56.8749M37.9223 6.83547H48.4155M21.5845 6.83547H32.0947" stroke="#6161FF" stroke-width="3" stroke-miterlimit="22.926" stroke-linecap="round" stroke-linejoin="round"/>
<path d="M24.7457 17.7728H61.968M8.03198 17.7728H12.441" stroke="#6161FF" stroke-width="3" stroke-miterlimit="22.926" stroke-linecap="round" stroke-linejoin="round"/>
<path d="M34.9714 42.0267C33.1551 40.1439 30.6796 38.2542 30.6796 35.4634C30.6796 33.0709 32.6396 31.2556 34.9989 31.2556C37.3581 31.2556 39.3181 33.0709 39.3179 35.4634C39.3179 38.2684 36.8175 40.163 34.9989 42.0551L22.2456 55.3234L26.5108 56.6177L28.4729 60.6198L39.1741 46.3991C41.688 43.0584 44.7868 39.9204 44.7868 35.4634C44.7868 30.0465 40.3811 25.7869 34.9989 25.7869C29.6165 25.7869 25.2109 30.0465 25.2109 35.4634C25.2109 39.9121 28.3006 43.0503 30.8093 46.3868M35.0646 52.0416L41.5248 60.6198L43.487 56.6177L47.7521 55.3234L39.2624 46.4908" stroke="#6161FF" stroke-width="3" stroke-miterlimit="22.926" stroke-linecap="round" stroke-linejoin="round"/>
<path d="M30.6819 35.4635C30.6819 31.6296 31.851 25.8895 35.0011 25.8895C38.1511 25.8895 39.3202 31.6296 39.3202 35.4635" stroke="#6161FF" stroke-width="3" stroke-miterlimit="22.926" stroke-linecap="round" stroke-linejoin="round"/>
<path d="M18.5925 17.7728H18.5938" stroke="#6161FF" stroke-width="3" stroke-miterlimit="2.613" stroke-linecap="round" stroke-linejoin="round"/>
<path d="M50.7219 68.6328H50.7231" stroke="#6161FF" stroke-width="3" stroke-miterlimit="2.613" stroke-linecap="round" stroke-linejoin="round"/>
</g>
</svg>
