<svg width="92" height="63" viewBox="0 0 92 63" fill="none" xmlns="http://www.w3.org/2000/svg">
<path d="M85.8696 0.916016H5.6264C2.60998 0.916016 0.155273 3.37072 0.155273 6.38714V57.451C0.155273 60.4674 2.60998 62.9221 5.6264 62.9221H85.8696C88.886 62.9221 91.3407 60.4674 91.3407 57.451V6.38714C91.3407 3.37072 88.886 0.916016 85.8696 0.916016ZM87.6933 57.451C87.6933 58.454 86.8726 59.2747 85.8696 59.2747H5.6264C4.6198 59.2747 3.80269 58.454 3.80269 57.451V6.38714C3.80269 5.38036 4.6198 4.56343 5.6264 4.56343H85.8696C86.8726 4.56343 87.6933 5.38036 87.6933 6.38714V57.451Z" fill="black"/>
<path d="M89.5165 17.3281H1.97852V24.623H89.5165V17.3281Z" fill="black"/>
<path d="M89.517 15.5049H1.97898C0.97238 15.5049 0.155273 16.3218 0.155273 17.3286V24.6234C0.155273 25.6302 0.97238 26.4471 1.97898 26.4471H89.517C90.5236 26.4471 91.3407 25.6302 91.3407 24.6234V17.3286C91.3407 16.3218 90.5236 15.5049 89.517 15.5049ZM87.6933 22.7997H3.80269V19.1523H87.6933V22.7997Z" fill="black"/>
<path d="M49.3956 37.3896H16.5688C15.5622 37.3896 14.7451 38.2068 14.7451 39.2134C14.7451 40.22 15.5622 41.0371 16.5688 41.0371H49.3956C50.4022 41.0371 51.2193 40.22 51.2193 39.2134C51.2193 38.2066 50.4022 37.3896 49.3956 37.3896Z" fill="black"/>
<path d="M34.8059 44.6846H16.5688C15.5622 44.6846 14.7451 45.5017 14.7451 46.5083C14.7451 47.5149 15.5622 48.332 16.5688 48.332H34.8059C35.8125 48.332 36.6296 47.5149 36.6296 46.5083C36.6296 45.5017 35.8125 44.6846 34.8059 44.6846Z" fill="black"/>
</svg>
