<svg width="63" height="70" viewBox="0 0 63 70" fill="none" xmlns="http://www.w3.org/2000/svg">
<path d="M48.9924 6.42438C48.2377 6.42438 47.6252 7.03688 47.6252 7.79156C47.6252 8.54625 48.2377 9.15875 48.9924 9.15875C49.7471 9.15875 50.3596 8.54625 50.3596 7.79156C50.3596 7.03688 49.7474 6.42438 48.9924 6.42438Z" fill="#6161FF"/>
<path d="M50.2448 1.09358C41.6707 -1.65583 34.5051 1.42089 31.2199 3.31676C27.935 1.42048 20.7705 -1.65638 12.1943 1.09358C0.836794 4.73672 -4.48798 21.321 4.61843 34.7024C8.93286 41.0396 9.50899 45.9277 10.1189 51.1029C10.5654 54.8912 11.0271 58.8086 12.9557 63.3884C14.2526 66.4673 16.0858 69.9893 18.7982 69.9891C18.8227 69.9891 18.8477 69.9888 18.8723 69.9883C21.0534 69.9367 22.811 67.7735 24.5709 62.974C25.4673 60.5275 26.0417 57.6405 26.5972 54.8489C27.597 49.8239 28.631 44.6279 31.2296 44.6097C31.2343 44.6097 31.2388 44.6097 31.2434 44.6097C33.8136 44.6097 34.8453 49.8075 35.843 54.834C36.3988 57.6345 36.9736 60.5306 37.8699 62.9743C39.6319 67.7812 41.3894 69.9478 43.5685 69.9992C43.5932 69.9997 43.6177 70 43.6424 70C46.3493 70 48.185 66.4724 49.4839 63.3883C51.3268 59.0118 51.8096 55.1041 52.2765 51.3251C52.9338 46.0044 53.5547 40.9789 57.8312 34.6879C67.0443 21.1336 61.4117 4.67328 50.2448 1.09358ZM55.5696 33.1507C50.9217 39.988 50.2308 45.581 49.5625 50.9898C49.098 54.7492 48.6593 58.3 46.9636 62.3268C44.9516 67.1036 43.7849 67.2655 43.6374 67.2655C43.6357 67.2655 43.6344 67.2655 43.633 67.2655C43.5804 67.2643 42.3224 67.1759 40.4372 62.0327C39.6141 59.7889 39.0606 56.9993 38.5252 54.3016C37.9242 51.2733 37.3565 48.4127 36.4208 46.1799C35.2236 43.3232 33.4834 41.8751 31.2479 41.8751C31.2355 41.8751 31.2228 41.8751 31.2103 41.8752C28.9655 41.8909 27.2188 43.3503 26.0191 46.2129C25.0838 48.4444 24.5163 51.2962 23.9157 54.3152C23.3805 57.0048 22.8272 59.786 22.0038 62.033C20.122 67.1651 18.8611 67.2535 18.8083 67.2547C18.6858 67.2569 17.5054 67.1448 15.4762 62.3272C13.6979 58.1041 13.2787 54.5481 12.8351 50.783C12.2134 45.5085 11.5706 40.0545 6.87948 33.1641C-1.32979 21.1012 3.61861 6.71654 13.0298 3.69766C21.2137 1.07335 27.968 4.48242 30.492 6.07014C30.9368 6.35 31.5028 6.35014 31.9475 6.07027C34.4724 4.48297 41.2284 1.07417 49.4102 3.6978C59.0077 6.7741 63.6129 21.3177 55.5696 33.1507Z" fill="#6161FF"/>
<path d="M55.981 14.1537C55.5369 12.8646 54.9484 11.6784 54.2318 10.628C53.8062 10.004 52.9557 9.84338 52.332 10.269C51.7081 10.6945 51.5475 11.545 51.9731 12.1688C52.5524 13.018 53.031 13.9855 53.3958 15.0443C54.7582 18.9987 54.4027 23.6128 52.4204 27.7036C52.0911 28.3831 52.375 29.2008 53.0545 29.5302C53.7342 29.8595 54.5519 29.5756 54.8811 28.8961C57.1763 24.1597 57.5773 18.7863 55.981 14.1537Z" fill="#6161FF"/>
<path d="M26.2504 18.7028L20.7465 16.8681L18.9119 11.3643C18.7258 10.806 18.2033 10.4294 17.6149 10.4294C17.0264 10.4294 16.504 10.8059 16.3178 11.3643L14.4832 16.8681L8.97932 18.7028C8.42109 18.8888 8.04443 19.4114 8.04443 19.9998C8.04443 20.5883 8.42096 21.1107 8.97932 21.2969L14.4832 23.1315L16.3178 28.6354C16.5039 29.1936 17.0264 29.5702 17.6149 29.5702C18.2033 29.5702 18.7257 29.1937 18.9119 28.6354L20.7465 23.1315L26.2504 21.2969C26.8086 21.1108 27.1853 20.5883 27.1853 19.9998C27.1853 19.4114 26.8088 18.889 26.2504 18.7028ZM19.2333 20.7535C18.8251 20.8896 18.5046 21.2099 18.3686 21.6183L17.6149 23.8796L16.8611 21.6183C16.7251 21.21 16.4048 20.8896 15.9964 20.7535L13.7351 19.9998L15.9964 19.2461C16.4046 19.1101 16.7251 18.7897 16.8611 18.3813L17.6149 16.12L18.3686 18.3813C18.5046 18.7896 18.825 19.1101 19.2333 19.2461L21.4947 19.9998L19.2333 20.7535Z" fill="#6161FF"/>
</svg>
