<svg width="121" height="121" viewBox="0 0 121 121" fill="none" xmlns="http://www.w3.org/2000/svg">
<path d="M82.293 1.39734C81.7358 0.187273 80.2822 -0.345155 79.0709 0.235676L26.8636 24.5579C25.6522 25.1146 25.1193 26.5667 25.7007 27.7767L36.6509 51.2277C22.9631 60.4968 14.7989 75.0418 10.3898 82.9072C5.56877 91.4986 1.20806 94.2334 1.18384 94.2576C0.553957 94.6206 0.117887 95.274 0.0209822 96.0001C-0.0759224 96.7503 0.166339 97.4764 0.675088 98.0088L21.8972 120.25C22.3575 120.734 22.9874 121 23.6415 121H23.6657C24.344 121 24.9739 120.71 25.4342 120.226C28.5109 116.91 35.27 114.369 41.2296 112.142C43.5554 111.271 45.7357 110.448 47.6738 109.601C53.8757 106.891 57.4854 102.97 59.4477 99.9691L64.1718 110.061C64.5837 110.932 65.4558 111.465 66.3764 111.465C66.7156 111.465 67.0789 111.392 67.3939 111.247L119.601 86.9004C120.813 86.3438 121.346 84.8917 120.764 83.6816L82.293 1.39734ZM45.7115 105.172C43.8945 105.971 41.7626 106.77 39.5096 107.617C33.986 109.698 27.8326 111.997 23.7626 115.216L6.00484 96.6051C8.08829 94.7174 11.2861 91.2324 14.6293 85.2789C18.772 77.8976 26.379 64.3448 38.7586 55.705L43.2404 65.2887C39.8003 66.886 35.7545 68.338 31.1758 69.5239C29.8918 69.8627 29.0924 71.1696 29.4315 72.4765C29.7707 73.7591 31.0789 74.5578 32.3871 74.2189C36.4086 73.1783 42.2229 71.3874 47.4558 68.6285H47.48H47.5042C51.6469 66.4503 55.4504 63.6914 57.7761 60.2306C62.7909 52.7282 65.7707 50.9615 66.231 50.8889C66.5702 51.0583 67.0063 51.3488 67.2728 52.2442C68.1449 55.1483 66.4006 60.8356 64.2445 64.4416C63.0816 66.4019 60.6348 68.8947 58.2849 71.2906C54.7721 74.8724 51.1381 78.551 49.9026 82.1086C48.2068 86.9488 44.694 96.9923 30.3279 96.9923C30.2068 96.9923 30.0856 96.9923 29.9403 96.9923C28.6078 96.9923 27.5419 98.0572 27.5177 99.3883C27.4934 100.719 28.5836 101.833 29.916 101.833H30.3521C45.2027 101.833 50.8474 92.7087 53.3427 86.7794L57.0009 94.5964C56.4437 95.7339 53.8515 101.615 45.7115 105.172ZM67.5392 105.85L55.9349 81.0195C57.4369 78.9866 59.6415 76.7117 61.6765 74.6304C64.3656 71.8956 66.8851 69.3061 68.3629 66.8618C69.6469 64.7079 70.8098 61.9731 71.5366 59.2142L77.0359 56.673C79.0709 55.7292 81.6631 56.6488 82.6321 58.7059C83.1167 59.7224 83.1651 60.8598 82.7775 61.9247C82.3899 62.9896 81.6146 63.8366 80.5971 64.3206L69.0655 69.6933C67.8542 70.2499 67.3212 71.702 67.9026 72.9121C68.3145 73.7833 69.1866 74.3158 70.1072 74.3158C70.4464 74.3158 70.8098 74.2431 71.1247 74.0979L77.7142 71.0244L78.5864 72.8879C78.9982 73.7591 79.8704 74.2915 80.7909 74.2915C81.1301 74.2915 81.4935 74.2189 81.8084 74.0737C83.0198 73.5171 83.5527 72.065 82.9713 70.855L82.0992 68.9915L82.6564 68.7253C84.8609 67.7088 86.5325 65.8695 87.3562 63.5946C88.1799 61.3197 88.0588 58.8511 87.0413 56.673C85.5635 53.5027 82.3414 51.4456 78.8286 51.4456C77.4962 51.4456 76.188 51.736 75.0009 52.2926L72.2633 53.5753C72.2391 52.6072 72.118 51.6634 71.8757 50.8163C71.2701 48.8318 70.0345 47.3313 68.2903 46.5085C68.1691 46.4359 67.9995 46.3633 67.8057 46.3149L68.6052 45.9519H68.6536C68.6779 45.9519 68.6779 45.9277 68.6779 45.9277L77.4235 41.8619C78.6348 41.3052 79.1678 39.8531 78.5864 38.6431C78.0292 37.433 76.5756 36.9006 75.3643 37.4814L68.7748 40.555L67.9026 38.6915C67.3454 37.4814 65.8919 36.949 64.6806 37.5298C63.4692 38.0865 62.9363 39.5385 63.5177 40.7486L64.3898 42.6121L63.8326 42.8783C60.659 44.3546 58.5998 47.5734 58.5998 51.1067V51.1551C57.1462 52.7766 55.5231 54.8579 53.7061 57.6169C52.4221 59.5288 50.2902 61.3681 47.5042 63.1106L31.1273 28.0671L78.9255 5.77777L115.337 83.7058L67.5392 105.85Z" fill="#6161FF"/>
</svg>
