<svg width="140" height="73" viewBox="0 0 140 73" fill="none" xmlns="http://www.w3.org/2000/svg">
<path d="M127.415 29.9231L126.164 28.1955C119.757 19.5911 111.459 12.5742 101.909 7.68685C92.3596 2.79946 81.8145 0.17228 71.0883 0.00819058C60.362 -0.155899 49.7416 2.14749 40.0471 6.74049C30.3525 11.3335 21.8433 18.0932 15.1766 26.4976L13.8511 28.1955C4.84026 40.2296 -0.020353 54.8637 6.40591e-05 69.8975V72.057H26.183V69.8975C26.1582 60.4726 29.1949 51.2946 34.8361 43.7443C40.3329 36.3507 48.0204 30.8779 56.8058 28.1037C65.5912 25.3295 75.0276 25.3951 83.7736 28.2912C92.5196 31.1873 100.13 36.7665 105.524 44.2358C110.917 51.7051 113.819 60.6844 113.817 69.8975V72.057H140V69.8975C140.024 55.5942 135.628 41.6328 127.415 29.9231ZM21.9085 67.7826H4.36388C4.74611 55.1417 8.8037 42.8861 16.0404 32.5146L30.1149 42.9401C25.1156 50.2933 22.273 58.8984 21.9085 67.7826ZM69.9998 21.821C62.865 21.8043 55.817 23.3863 49.3737 26.4507C42.9304 29.5152 37.2555 33.9842 32.7659 39.5295L18.7064 29.104C24.8546 21.3731 32.6681 15.1291 41.5647 10.8374C50.4612 6.54569 60.2116 4.3168 70.0892 4.3168C79.9669 4.3168 89.7172 6.54569 98.6138 10.8374C107.51 15.1291 115.324 21.3731 121.472 29.104L107.413 39.5295C102.903 33.9614 97.1995 29.4788 90.7234 26.4135C84.2473 23.3482 77.1647 21.7786 69.9998 21.821ZM118.091 67.7826C117.695 58.9481 114.848 50.3981 109.87 43.089L123.944 32.5891C131.192 42.9562 135.255 55.2135 135.636 67.857L118.091 67.7826Z" fill="#6161FF"/>
<path d="M75.7636 43.7147L87.2168 35.2849L84.6402 31.7998L69.2402 43.0891C61.9115 43.3273 54.9649 46.4158 49.8786 51.6976C47.1946 54.4714 45.1028 57.7621 43.7304 61.3697C42.358 64.9773 41.7338 68.8263 41.8956 72.6827L46.2148 72.489C46.0892 69.2718 46.6092 66.0621 47.7442 63.0491C48.8791 60.0361 50.6059 57.2809 52.8228 54.9461C55.0396 52.6112 57.7016 50.744 60.6518 49.4545C63.6019 48.165 66.7804 47.4794 69.9998 47.4381H70.2083C73.3903 47.4681 76.533 48.1435 79.4463 49.4235C82.3596 50.7035 84.9829 52.5615 87.1572 54.8848C89.4105 57.2217 91.1642 59.9931 92.3113 63.03C93.4585 66.0669 93.975 69.3056 93.8295 72.5486L98.1636 72.7422C98.4403 66.0509 96.3536 59.4755 92.269 54.1682C88.1844 48.8609 82.3624 45.1603 75.8232 43.7147H75.7636Z" fill="#6161FF"/>
<path d="M106.5 48.1174C112.851 48.1174 118 42.7448 118 36.1174C118 29.49 112.851 24.1174 106.5 24.1174C100.149 24.1174 95 29.49 95 36.1174C95 42.7448 100.149 48.1174 106.5 48.1174Z" fill="#6161FF"/>
<path d="M111 35.2906L106.5 31.1174M106.5 31.1174L102 35.2906M106.5 31.1174V43.1174" stroke="white" stroke-miterlimit="10"/>
</svg>
