<svg width="29" height="24" viewBox="0 0 29 24" fill="none" xmlns="http://www.w3.org/2000/svg">
<path d="M10.75 2.57504C11.9627 2.1906 13.2278 1.99662 14.5 2.00004C19.7275 2.00004 23.285 5.12504 25.4062 7.88003C26.4687 9.26253 26.9999 9.95128 26.9999 12C26.9999 14.05 26.4687 14.7388 25.4062 16.12C23.285 18.875 19.7275 22 14.5 22C9.27248 22 5.71499 18.875 3.59375 16.12C2.53125 14.74 2 14.0488 2 12C2 9.95003 2.53125 9.26128 3.59375 7.88003C4.2417 7.03342 4.96326 6.24576 5.74999 5.52629" stroke="#2D3353" stroke-width="2.5" stroke-linecap="round"/>
<path d="M18.248 12C18.248 12.9946 17.8529 13.9484 17.1497 14.6516C16.4464 15.3549 15.4926 15.75 14.498 15.75C13.5035 15.75 12.5497 15.3549 11.8464 14.6516C11.1431 13.9484 10.748 12.9946 10.748 12C10.748 11.0054 11.1431 10.0516 11.8464 9.34835C12.5497 8.64509 13.5035 8.25 14.498 8.25C15.4926 8.25 16.4464 8.64509 17.1497 9.34835C17.8529 10.0516 18.248 11.0054 18.248 12Z" stroke="#2D3353" stroke-width="2.5"/>
</svg>
