<svg width="142" height="20" viewBox="0 0 142 20" fill="none" xmlns="http://www.w3.org/2000/svg">
<path d="M21.4503 9.11016L17.0239 12.755L18.3498 18.1816C18.42 18.4653 18.4 18.7622 18.2923 19.0352C18.1846 19.3082 17.994 19.5452 17.7443 19.7166C17.4946 19.8879 17.1969 19.986 16.8884 19.9986C16.58 20.0112 16.2744 19.9377 16.01 19.7874L10.9936 16.9166L5.98805 19.7874C5.72361 19.9377 5.41806 20.0112 5.1096 19.9986C4.80114 19.986 4.50345 19.8879 4.25377 19.7166C4.00408 19.5452 3.81347 19.3082 3.70576 19.0352C3.59805 18.7622 3.57803 18.4653 3.6482 18.1816L4.97222 12.7606L0.544745 9.11016C0.310572 8.91961 0.14124 8.66806 0.0579842 8.38706C-0.0252714 8.10607 -0.0187445 7.80814 0.0767463 7.53063C0.172237 7.25312 0.352441 7.00839 0.59476 6.82713C0.837079 6.64586 1.13073 6.53614 1.43888 6.5117L7.27478 6.03479L9.5528 0.908257C9.67176 0.639258 9.87242 0.409482 10.1295 0.247861C10.3866 0.08624 10.6886 0 10.9975 0C11.3065 0 11.6085 0.08624 11.8656 0.247861C12.1227 0.409482 12.3233 0.639258 12.4423 0.908257L14.7272 6.03479L20.5611 6.5117C20.8693 6.53614 21.1629 6.64586 21.4052 6.82713C21.6476 7.00839 21.8278 7.25312 21.9233 7.53063C22.0187 7.80814 22.0253 8.10607 21.942 8.38706C21.8588 8.66806 21.6894 8.91961 21.4553 9.11016H21.4503Z" fill="#F9A527"/>
<path d="M51.4503 9.11016L47.0239 12.755L48.3498 18.1816C48.42 18.4653 48.4 18.7622 48.2923 19.0352C48.1846 19.3082 47.994 19.5452 47.7443 19.7166C47.4946 19.8879 47.1969 19.986 46.8884 19.9986C46.58 20.0112 46.2744 19.9377 46.01 19.7874L40.9936 16.9166L35.9881 19.7874C35.7236 19.9377 35.4181 20.0112 35.1096 19.9986C34.8011 19.986 34.5035 19.8879 34.2538 19.7166C34.0041 19.5452 33.8135 19.3082 33.7058 19.0352C33.5981 18.7622 33.578 18.4653 33.6482 18.1816L34.9722 12.7606L30.5447 9.11016C30.3106 8.91961 30.1412 8.66806 30.058 8.38706C29.9747 8.10607 29.9813 7.80814 30.0767 7.53063C30.1722 7.25312 30.3524 7.00839 30.5948 6.82713C30.8371 6.64586 31.1307 6.53614 31.4389 6.5117L37.2748 6.03479L39.5528 0.908257C39.6718 0.639258 39.8724 0.409482 40.1295 0.247861C40.3866 0.08624 40.6886 0 40.9975 0C41.3065 0 41.6085 0.08624 41.8656 0.247861C42.1227 0.409482 42.3233 0.639258 42.4423 0.908257L44.7272 6.03479L50.5611 6.5117C50.8693 6.53614 51.1629 6.64586 51.4052 6.82713C51.6476 7.00839 51.8278 7.25312 51.9233 7.53063C52.0187 7.80814 52.0253 8.10607 51.942 8.38706C51.8588 8.66806 51.6894 8.91961 51.4553 9.11016H51.4503Z" fill="#F9A527"/>
<path d="M81.4503 9.11016L77.0239 12.755L78.3498 18.1816C78.42 18.4653 78.4 18.7622 78.2923 19.0352C78.1846 19.3082 77.994 19.5452 77.7443 19.7166C77.4946 19.8879 77.1969 19.986 76.8884 19.9986C76.58 20.0112 76.2744 19.9377 76.01 19.7874L70.9936 16.9166L65.9881 19.7874C65.7236 19.9377 65.4181 20.0112 65.1096 19.9986C64.8011 19.986 64.5035 19.8879 64.2538 19.7166C64.0041 19.5452 63.8135 19.3082 63.7058 19.0352C63.5981 18.7622 63.578 18.4653 63.6482 18.1816L64.9722 12.7606L60.5447 9.11016C60.3106 8.91961 60.1412 8.66806 60.058 8.38706C59.9747 8.10607 59.9813 7.80814 60.0767 7.53063C60.1722 7.25312 60.3524 7.00839 60.5948 6.82713C60.8371 6.64586 61.1307 6.53614 61.4389 6.5117L67.2748 6.03479L69.5528 0.908257C69.6718 0.639258 69.8724 0.409482 70.1295 0.247861C70.3866 0.08624 70.6886 0 70.9975 0C71.3065 0 71.6085 0.08624 71.8656 0.247861C72.1227 0.409482 72.3233 0.639258 72.4423 0.908257L74.7272 6.03479L80.5611 6.5117C80.8693 6.53614 81.1629 6.64586 81.4052 6.82713C81.6476 7.00839 81.8278 7.25312 81.9233 7.53063C82.0187 7.80814 82.0253 8.10607 81.942 8.38706C81.8588 8.66806 81.6894 8.91961 81.4553 9.11016H81.4503Z" fill="#F9A527"/>
<path d="M111.45 9.11016L107.024 12.755L108.35 18.1816C108.42 18.4653 108.4 18.7622 108.292 19.0352C108.185 19.3082 107.994 19.5452 107.744 19.7166C107.495 19.8879 107.197 19.986 106.888 19.9986C106.58 20.0112 106.274 19.9377 106.01 19.7874L100.994 16.9166L95.9881 19.7874C95.7236 19.9377 95.4181 20.0112 95.1096 19.9986C94.8011 19.986 94.5035 19.8879 94.2538 19.7166C94.0041 19.5452 93.8135 19.3082 93.7058 19.0352C93.5981 18.7622 93.578 18.4653 93.6482 18.1816L94.9722 12.7606L90.5447 9.11016C90.3106 8.91961 90.1412 8.66806 90.058 8.38706C89.9747 8.10607 89.9813 7.80814 90.0767 7.53063C90.1722 7.25312 90.3524 7.00839 90.5948 6.82713C90.8371 6.64586 91.1307 6.53614 91.4389 6.5117L97.2748 6.03479L99.5528 0.908257C99.6718 0.639258 99.8724 0.409482 100.13 0.247861C100.387 0.08624 100.689 0 100.998 0C101.306 0 101.608 0.08624 101.866 0.247861C102.123 0.409482 102.323 0.639258 102.442 0.908257L104.727 6.03479L110.561 6.5117C110.869 6.53614 111.163 6.64586 111.405 6.82713C111.648 7.00839 111.828 7.25312 111.923 7.53063C112.019 7.80814 112.025 8.10607 111.942 8.38706C111.859 8.66806 111.689 8.91961 111.455 9.11016H111.45Z" fill="#F9A527"/>
<path d="M141.45 9.11016L137.024 12.755L138.35 18.1816C138.42 18.4653 138.4 18.7622 138.292 19.0352C138.185 19.3082 137.994 19.5452 137.744 19.7166C137.495 19.8879 137.197 19.986 136.888 19.9986C136.58 20.0112 136.274 19.9377 136.01 19.7874L130.994 16.9166L125.988 19.7874C125.724 19.9377 125.418 20.0112 125.11 19.9986C124.801 19.986 124.503 19.8879 124.254 19.7166C124.004 19.5452 123.813 19.3082 123.706 19.0352C123.598 18.7622 123.578 18.4653 123.648 18.1816L124.972 12.7606L120.545 9.11016C120.311 8.91961 120.141 8.66806 120.058 8.38706C119.975 8.10607 119.981 7.80814 120.077 7.53063C120.172 7.25312 120.352 7.00839 120.595 6.82713C120.837 6.64586 121.131 6.53614 121.439 6.5117L127.275 6.03479L129.553 0.908257C129.672 0.639258 129.872 0.409482 130.13 0.247861C130.387 0.08624 130.689 0 130.998 0C131.306 0 131.608 0.08624 131.866 0.247861C132.123 0.409482 132.323 0.639258 132.442 0.908257L134.727 6.03479L140.561 6.5117C140.869 6.53614 141.163 6.64586 141.405 6.82713C141.648 7.00839 141.828 7.25312 141.923 7.53063C142.019 7.80814 142.025 8.10607 141.942 8.38706C141.859 8.66806 141.689 8.91961 141.455 9.11016H141.45Z" fill="#F9A527"/>
</svg>
