<svg width="56" height="70" viewBox="0 0 56 70" fill="none" xmlns="http://www.w3.org/2000/svg">
<path fill-rule="evenodd" clip-rule="evenodd" d="M22.6386 14.9423H20.1149C18.7191 14.9423 17.5862 16.0494 17.5862 17.4136C17.5862 18.7777 18.7191 19.8848 20.1149 19.8848H22.6487L22.6538 22.361C22.6563 23.7252 23.7917 24.8298 25.1876 24.8273C26.5834 24.8249 27.7138 23.7153 27.7112 22.3511L27.7062 19.8848H30.2299C31.6257 19.8848 32.7586 18.7777 32.7586 17.4136C32.7586 16.0494 31.6257 14.9423 30.2299 14.9423H27.6961L27.691 12.4661C27.6885 11.1019 26.5531 9.99729 25.1572 9.99976C23.7614 10.0022 22.631 11.1118 22.6335 12.476L22.6386 14.9423Z" fill="#6161FF"/>
<path fill-rule="evenodd" clip-rule="evenodd" d="M50.3448 17.5V7.5C50.3448 5.51 49.5494 3.6025 48.1322 2.1975C46.7175 0.79 44.7968 0 42.7931 0C34.0759 0 16.2689 0 7.55172 0C5.548 0 3.62735 0.79 2.21266 2.1975C0.795449 3.6025 0 5.51 0 7.5V62.5C0 64.49 0.795449 66.3975 2.21266 67.8025C3.62735 69.21 5.548 70 7.55172 70H42.7906C44.1801 70 45.3078 68.88 45.3078 67.5C45.3078 66.12 44.1801 65 42.7906 65C33.5196 65 14.0966 65 7.55172 65C6.88466 65 6.24276 64.7375 5.77204 64.2675C5.29879 63.8 5.03448 63.1625 5.03448 62.5V7.5C5.03448 6.8375 5.29879 6.2 5.77204 5.7325C6.24276 5.2625 6.88466 5 7.55172 5H42.7931C43.4602 5 44.1021 5.2625 44.5728 5.7325C45.046 6.2 45.3103 6.8375 45.3103 7.5V17.5C45.3103 18.88 46.4381 20 47.8276 20C49.2171 20 50.3448 18.88 50.3448 17.5Z" fill="#6161FF"/>
<path fill-rule="evenodd" clip-rule="evenodd" d="M45.0312 30.3396C42.1004 31.3797 39.999 34.1659 39.999 37.4369C39.999 41.6048 43.3698 44.9412 47.565 44.9412C48.9634 44.9412 50.114 46.0667 50.114 47.456C50.114 48.8428 48.9811 49.9683 47.5852 49.9683C46.1894 49.9683 45.0565 48.8428 45.0565 47.456C45.0565 46.0692 43.9236 44.9437 42.5278 44.9437C41.1319 44.9437 39.999 46.0692 39.999 47.456C39.999 50.727 42.1029 53.5157 45.0388 54.5558L45.0261 57.4776C45.0211 58.8644 46.1489 59.9949 47.5448 59.9999C48.9406 60.0075 50.0786 58.8845 50.0836 57.4977L50.0963 54.5683C53.0498 53.5383 55.1714 50.7421 55.1714 47.456C55.1714 43.2981 51.7475 39.9166 47.565 39.9166C46.1767 39.9166 45.0565 38.8162 45.0565 37.4369C45.0565 36.0501 46.1894 34.9246 47.5852 34.9246C48.976 34.9246 50.1064 36.0426 50.114 37.4218V37.4545C50.1241 38.8312 51.2519 39.9492 52.6427 39.9492C54.0386 39.9492 55.1714 38.8237 55.1714 37.4369C55.1714 34.1483 53.0473 31.3496 50.0887 30.3221L50.114 27.36C50.1241 25.9733 49.0013 24.8402 47.6055 24.8276C46.2096 24.8176 45.0666 25.9356 45.0565 27.3198L45.0312 30.3396Z" fill="#6161FF"/>
<path fill-rule="evenodd" clip-rule="evenodd" d="M12.8287 37.241H32.6908C34.0613 37.241 35.1735 36.1596 35.1735 34.8272C35.1735 33.4948 34.0613 32.4134 32.6908 32.4134H12.8287C11.4582 32.4134 10.3459 33.4948 10.3459 34.8272C10.3459 36.1596 11.4582 37.241 12.8287 37.241Z" fill="#6161FF"/>
<path fill-rule="evenodd" clip-rule="evenodd" d="M12.8287 47.5862H32.6908C34.0613 47.5862 35.1735 46.4275 35.1735 45C35.1735 43.5724 34.0613 42.4138 32.6908 42.4138H12.8287C11.4582 42.4138 10.3459 43.5724 10.3459 45C10.3459 46.4275 11.4582 47.5862 12.8287 47.5862Z" fill="#6161FF"/>
<path fill-rule="evenodd" clip-rule="evenodd" d="M12.8287 57.2414H32.6908C34.0613 57.2414 35.1735 56.16 35.1735 54.8276C35.1735 53.4952 34.0613 52.4138 32.6908 52.4138H12.8287C11.4582 52.4138 10.3459 53.4952 10.3459 54.8276C10.3459 56.16 11.4582 57.2414 12.8287 57.2414Z" fill="#6161FF"/>
</svg>
