<svg width="22" height="22" viewBox="0 0 22 22" fill="none" xmlns="http://www.w3.org/2000/svg">
<path fill-rule="evenodd" clip-rule="evenodd" d="M10.698 0H10.802C11.701 0 12.45 4.47035e-08 13.044 0.08C13.672 0.164 14.239 0.35 14.694 0.805C15.15 1.261 15.336 1.828 15.42 2.455C15.48 2.895 15.495 3.419 15.499 4.025C16.147 4.046 16.725 4.085 17.239 4.153C18.411 4.311 19.36 4.643 20.109 5.391C20.857 6.14 21.189 7.089 21.347 8.261C21.5 9.401 21.5 10.856 21.5 12.694V12.806C21.5 14.644 21.5 16.1 21.347 17.239C21.189 18.411 20.857 19.36 20.109 20.109C19.36 20.857 18.411 21.189 17.239 21.347C16.099 21.5 14.644 21.5 12.806 21.5H8.694C6.856 21.5 5.4 21.5 4.261 21.347C3.089 21.189 2.14 20.857 1.391 20.109C0.643 19.36 0.311 18.411 0.153 17.239C0 16.099 0 14.644 0 12.806V12.694C0 10.856 0 9.4 0.153 8.261C0.311 7.089 0.643 6.14 1.391 5.391C2.14 4.643 3.089 4.311 4.261 4.153C4.83852 4.0815 5.41924 4.03878 6.001 4.025C6.005 3.419 6.021 2.895 6.08 2.455C6.164 1.828 6.35 1.261 6.805 0.805C7.261 0.35 7.828 0.165 8.455 0.08C9.05 4.47035e-08 9.8 0 10.698 0ZM7.502 4.002C7.88 4 8.277 4 8.694 4H12.806C13.223 4 13.62 4 13.998 4.002C13.994 3.432 13.98 3.002 13.934 2.655C13.871 2.194 13.764 1.996 13.634 1.866C13.504 1.736 13.306 1.629 12.844 1.566C12.362 1.502 11.714 1.5 10.75 1.5C9.786 1.5 9.138 1.502 8.655 1.567C8.194 1.629 7.996 1.736 7.866 1.867C7.736 1.997 7.629 2.194 7.566 2.655C7.52 3.001 7.506 3.431 7.502 4.002ZM4.46 5.64C3.454 5.775 2.874 6.029 2.45 6.452C2.028 6.875 1.774 7.455 1.639 8.461C1.501 9.488 1.499 10.843 1.499 12.75C1.499 14.657 1.501 16.012 1.639 17.04C1.774 18.045 2.028 18.625 2.451 19.048C2.874 19.471 3.454 19.725 4.46 19.86C5.488 19.998 6.842 20 8.749 20H12.749C14.656 20 16.011 19.998 17.039 19.86C18.044 19.725 18.624 19.471 19.047 19.048C19.47 18.625 19.724 18.045 19.859 17.039C19.997 16.012 19.999 14.657 19.999 12.75C19.999 10.843 19.997 9.489 19.859 8.46C19.724 7.455 19.47 6.875 19.047 6.452C18.624 6.029 18.044 5.775 17.038 5.64C16.011 5.502 14.656 5.5 12.749 5.5H8.749C6.842 5.5 5.489 5.502 4.46 5.64ZM10.75 8C10.9489 8 11.1397 8.07902 11.2803 8.21967C11.421 8.36032 11.5 8.55109 11.5 8.75V8.76C12.589 9.034 13.5 9.893 13.5 11.083C13.5 11.2819 13.421 11.4727 13.2803 11.6133C13.1397 11.754 12.9489 11.833 12.75 11.833C12.5511 11.833 12.3603 11.754 12.2197 11.6133C12.079 11.4727 12 11.2819 12 11.083C12 10.699 11.574 10.167 10.75 10.167C9.926 10.167 9.5 10.699 9.5 11.083C9.5 11.467 9.926 12 10.75 12C12.135 12 13.5 12.96 13.5 14.417C13.5 15.607 12.589 16.465 11.5 16.74V16.75C11.5 16.9489 11.421 17.1397 11.2803 17.2803C11.1397 17.421 10.9489 17.5 10.75 17.5C10.5511 17.5 10.3603 17.421 10.2197 17.2803C10.079 17.1397 10 16.9489 10 16.75V16.74C8.911 16.466 8 15.607 8 14.417C8 14.2181 8.07902 14.0273 8.21967 13.8867C8.36032 13.746 8.55109 13.667 8.75 13.667C8.94891 13.667 9.13968 13.746 9.28033 13.8867C9.42098 14.0273 9.5 14.2181 9.5 14.417C9.5 14.801 9.926 15.333 10.75 15.333C11.574 15.333 12 14.801 12 14.417C12 14.033 11.574 13.5 10.75 13.5C9.365 13.5 8 12.54 8 11.083C8 9.893 8.911 9.034 10 8.76V8.75C10 8.55109 10.079 8.36032 10.2197 8.21967C10.3603 8.07902 10.5511 8 10.75 8Z" fill="black"/>
</svg>
