<svg width="22" height="22" viewBox="0 0 22 22" fill="none" xmlns="http://www.w3.org/2000/svg">
<path d="M19.047 5.75003H17.186L12.62 10.314C12.7772 10.7148 12.7917 11.1575 12.6609 11.5677C12.5302 11.9779 12.2621 12.3306 11.9019 12.5664C11.5417 12.8022 11.1113 12.9068 10.683 12.8626C10.2548 12.8184 9.85479 12.6281 9.55035 12.3237C9.24591 12.0192 9.05559 11.6192 9.01137 11.191C8.96716 10.7627 9.07176 10.3323 9.30759 9.97208C9.54341 9.61187 9.89607 9.34384 10.3063 9.21308C10.7165 9.08231 11.1592 9.09677 11.56 9.25403L16.125 4.68903V2.82803C16.1251 2.57901 16.224 2.3402 16.4 2.16403L18.13 0.434031C18.1619 0.401715 18.2021 0.378761 18.2462 0.367656C18.2903 0.356551 18.3365 0.357718 18.38 0.371031C18.469 0.397031 18.535 0.471031 18.553 0.562031L19.013 2.86303L21.313 3.32303C21.403 3.34103 21.477 3.40703 21.503 3.49603C21.5161 3.53926 21.5173 3.58525 21.5064 3.62909C21.4954 3.67294 21.4728 3.713 21.441 3.74503L19.71 5.47503C19.623 5.56219 19.5196 5.63134 19.4059 5.67853C19.2921 5.72572 19.1701 5.75002 19.047 5.75003Z" fill="black"/>
<path d="M1.5 11C1.5 13.4864 2.48772 15.871 4.24587 17.6291C6.00403 19.3873 8.3886 20.375 10.875 20.375C12.1061 20.375 13.3252 20.1325 14.4627 19.6614C15.6001 19.1902 16.6336 18.4997 17.5041 17.6291C18.3747 16.7586 19.0652 15.7251 19.5364 14.5877C20.0075 13.4502 20.25 12.2311 20.25 11C20.25 10.102 20.124 9.23401 19.889 8.41301C19.8423 8.2245 19.8705 8.02522 19.9678 7.8571C20.065 7.68899 20.2237 7.56515 20.4103 7.51164C20.597 7.45813 20.7972 7.47913 20.9687 7.57021C21.1403 7.6613 21.2698 7.81537 21.33 8.00001C21.604 8.95401 21.75 9.96001 21.75 11C21.75 17.006 16.881 21.875 10.875 21.875C4.869 21.875 0 17.006 0 11C0 4.99401 4.869 0.125005 10.875 0.125005C11.89 0.124005 12.899 0.265005 13.875 0.544005C13.9702 0.5707 14.0591 0.61594 14.1367 0.677125C14.2143 0.738311 14.2791 0.814235 14.3273 0.900532C14.3755 0.98683 14.4061 1.0818 14.4175 1.17998C14.4288 1.27816 14.4207 1.37762 14.3934 1.47264C14.3662 1.56765 14.3205 1.65635 14.2589 1.73364C14.1973 1.81092 14.121 1.87527 14.0345 1.92297C13.9479 1.97068 13.8528 2.00081 13.7545 2.01163C13.6563 2.02244 13.5569 2.01374 13.462 1.98601C12.6207 1.74573 11.7499 1.62423 10.875 1.62501C8.3886 1.62501 6.00403 2.61273 4.24587 4.37088C2.48772 6.12903 1.5 8.5136 1.5 11Z" fill="black"/>
<path d="M5.99999 11C6.00278 11.6624 6.14053 12.3172 6.40483 12.9245C6.66914 13.5318 7.05445 14.0788 7.53723 14.5323C8.02002 14.9857 8.59016 15.336 9.21284 15.5617C9.83551 15.7874 10.4977 15.8839 11.1589 15.8452C11.8201 15.8064 12.4664 15.6334 13.0585 15.3365C13.6506 15.0396 14.1759 14.6252 14.6025 14.1186C15.0291 13.6119 15.3479 13.0236 15.5395 12.3896C15.7311 11.7556 15.7915 11.0892 15.717 10.431C15.696 10.2977 15.7114 10.1613 15.7617 10.036C15.8119 9.91081 15.8951 9.80152 16.0024 9.71972C16.1098 9.63793 16.2372 9.58669 16.3713 9.57143C16.5053 9.55617 16.641 9.57746 16.764 9.63304C17.015 9.74504 17.184 9.98404 17.206 10.258C17.3613 11.5733 17.1029 12.9042 16.4669 14.0659C15.8308 15.2275 14.8487 16.1622 13.657 16.7399C12.4652 17.3176 11.1231 17.5097 9.81718 17.2895C8.51124 17.0692 7.30635 16.4476 6.36999 15.511C5.43388 14.5755 4.81211 13.3718 4.59091 12.0669C4.36971 10.7621 4.56004 9.42069 5.13551 8.22888C5.71098 7.03706 6.64305 6.05385 7.80247 5.41562C8.96189 4.77739 10.2912 4.51577 11.606 4.66703C11.7054 4.67626 11.8019 4.70523 11.89 4.75225C11.978 4.79927 12.0558 4.8634 12.1188 4.94087C12.1817 5.01834 12.2286 5.1076 12.2566 5.20341C12.2846 5.29923 12.2932 5.39967 12.2819 5.49885C12.2705 5.59802 12.2395 5.69395 12.1907 5.78099C12.1418 5.86803 12.0761 5.94444 11.9973 6.00574C11.9185 6.06705 11.8283 6.112 11.7319 6.13798C11.6355 6.16396 11.5349 6.17044 11.436 6.15704C10.753 6.07807 10.0611 6.14444 9.40555 6.35177C8.75004 6.5591 8.14578 6.90272 7.63243 7.36006C7.11909 7.81741 6.70827 8.37814 6.42693 9.00546C6.14559 9.63279 6.00009 10.3125 5.99999 11Z" fill="black"/>
</svg>
