<svg width="22" height="22" viewBox="0 0 22 22" fill="none" xmlns="http://www.w3.org/2000/svg">
<path d="M12.6209 4.74707C12.6209 4.74707 12.5051 4.63128 12.3893 4.63128C12.2735 4.51549 12.0419 4.51549 11.9261 4.63128C11.8103 4.63128 11.8103 4.74707 11.6946 4.74707L9.37876 7.06286C9.14718 7.29443 9.14718 7.6418 9.37876 7.87338C9.61034 8.10496 9.95771 8.10496 10.1893 7.87338L11.463 6.5997V10.9997C11.463 11.3471 11.6946 11.5786 12.0419 11.5786C12.3893 11.5786 12.6209 11.3471 12.6209 10.9997V6.5997L13.8946 7.87338C14.0103 7.98917 14.1261 7.98917 14.3577 7.98917C14.5893 7.98917 14.7051 7.98917 14.8209 7.87338C15.0524 7.6418 15.0524 7.29443 14.8209 7.06286L12.6209 4.74707Z" fill="black"/>
<path d="M20.2632 0H4.05263C3.12632 0 2.31579 0.810526 2.31579 1.73684V15.0526H0.578947C0.231579 15.0526 0 15.2842 0 15.6316V18.5263C0 20.4947 1.50526 22 3.47368 22H18.5263C20.4947 22 22 20.4947 22 18.5263V1.73684C22 0.810526 21.1895 0 20.2632 0ZM3.47368 20.8421C2.2 20.8421 1.15789 19.8 1.15789 18.5263V16.2105H15.0526V18.5263C15.0526 19.4526 15.4 20.2632 15.9789 20.8421H3.47368ZM20.8421 18.5263C20.8421 19.8 19.8 20.8421 18.5263 20.8421C17.2526 20.8421 16.2105 19.8 16.2105 18.5263V15.6316C16.2105 15.2842 15.9789 15.0526 15.6316 15.0526H3.47368V1.73684C3.47368 1.38947 3.70526 1.15789 4.05263 1.15789H20.2632C20.6105 1.15789 20.8421 1.38947 20.8421 1.73684V18.5263Z" fill="black"/>
</svg>
