<svg width="23" height="29" viewBox="0 0 23 29" fill="none" xmlns="http://www.w3.org/2000/svg">
<path d="M3.09305 9.89225H15.4012V7.22946C15.4012 6.11997 15.0023 5.1769 14.2046 4.40026C13.4068 3.62361 12.4381 3.23529 11.2985 3.23529C10.1588 3.23529 9.19013 3.62361 8.39238 4.40026C7.59464 5.1769 7.19576 6.11997 7.19576 7.22946H4.46062C4.46062 5.38771 5.12754 3.81755 6.46138 2.519C7.79521 1.22045 9.40758 0.571623 11.2985 0.572511C13.1903 0.572511 14.8031 1.22179 16.1369 2.52034C17.4708 3.81889 18.1372 5.38859 18.1363 7.22946V9.89225H19.5039C20.2561 9.89225 20.9002 10.1532 21.4363 10.6751C21.9723 11.197 22.2399 11.8237 22.239 12.555V25.8689C22.239 26.6012 21.971 27.2283 21.4349 27.7502C20.8988 28.2721 20.2551 28.5326 19.5039 28.5317H3.09305C2.34089 28.5317 1.69676 28.2708 1.16068 27.7489C0.624588 27.227 0.357001 26.6003 0.357912 25.8689V12.555C0.357912 11.8228 0.625956 11.1957 1.16204 10.6738C1.69813 10.1519 2.3418 9.89136 3.09305 9.89225ZM3.09305 25.8689H19.5039V12.555H3.09305V25.8689ZM11.2985 21.8748C12.0506 21.8748 12.6948 21.6138 13.2308 21.0919C13.7669 20.57 14.0345 19.9434 14.0336 19.212C14.0336 18.4797 13.7656 17.8526 13.2295 17.3307C12.6934 16.8088 12.0497 16.5483 11.2985 16.5492C10.5463 16.5492 9.90218 16.8102 9.36609 17.3321C8.83001 17.854 8.56242 18.4806 8.56333 19.212C8.56333 19.9442 8.83137 20.5713 9.36746 21.0932C9.90355 21.6151 10.5472 21.8756 11.2985 21.8748Z" fill="white"/>
</svg>
