<svg width="303" height="46" viewBox="0 0 303 46" fill="none" xmlns="http://www.w3.org/2000/svg">
<path d="M22.4567 0C22.6982 0 22.9396 0 23.1811 0C23.9055 0.362205 24.5092 0.72441 25.2336 1.08661C31.6326 4.58793 38.0315 7.96851 44.4305 11.4698C44.7927 11.7113 45.1549 11.9528 45.3963 12.315C45.8793 13.1601 45.5171 14.0053 44.5512 14.6089C42.6194 15.6955 40.6877 16.6614 38.8767 17.748C38.7559 17.8688 38.6352 17.8688 38.3937 17.9895C38.6352 18.1102 38.7559 18.231 38.8767 18.231C40.8084 19.1969 42.6194 20.2835 44.5512 21.2494C44.7927 21.3701 45.0341 21.6116 45.2756 21.7323C46 22.5774 45.7585 23.6641 44.6719 24.2677C42.7402 25.3543 40.8084 26.3202 38.8767 27.4068C38.7559 27.5276 38.6352 27.5276 38.3937 27.6483C38.6352 27.769 38.7559 27.8898 38.8767 27.8898C40.8084 28.8557 42.6194 29.9423 44.5512 30.9081C45.0341 31.1496 45.3963 31.3911 45.5171 31.9948C45.7585 32.8399 45.3963 33.5643 44.5512 34.0473C37.6693 37.79 30.9081 41.4121 24.0263 45.1549C23.1811 45.6378 22.4567 45.6378 21.7323 45.1549C14.8504 41.5328 8.08924 37.9108 1.32808 34.2887C0.72441 33.9265 0.24147 33.5643 0 32.9606C0 32.7192 0 32.4777 0 32.2362C0.24147 31.6326 0.72441 31.1496 1.32808 30.9081C3.13911 29.9423 4.95013 28.9764 6.88189 27.8898C7.00263 27.769 7.12336 27.769 7.36483 27.6483C7.12336 27.5276 7.00263 27.4068 6.88189 27.4068C5.07087 26.441 3.25984 25.4751 1.44882 24.5092C0.845145 24.147 0.362205 23.7848 0.120735 23.1811C0.120735 22.9396 0.120735 22.6982 0.120735 22.4567C0.362205 21.853 0.845145 21.3701 1.44882 21.1286C1.81102 21.0079 2.17323 20.7664 2.53543 20.5249C4.10499 19.6798 5.79528 18.8347 7.48557 17.8688C7.36483 17.748 7.12336 17.6273 7.00263 17.6273C5.1916 16.6614 3.25984 15.5748 1.44882 14.6089C0.845145 14.2467 0.362205 13.8845 0.24147 13.2808C0.24147 13.0394 0.24147 12.7979 0.24147 12.5564C0.48294 12.0735 0.72441 11.7113 1.32808 11.3491C8.20998 7.6063 15.3333 3.86352 22.4567 0ZM40.5669 13.0394C40.4462 12.9186 40.3255 12.9186 40.2047 12.7979C34.5302 9.77953 28.8557 6.76116 23.3018 3.62205C23.0604 3.50131 22.8189 3.50131 22.5774 3.62205C16.9029 6.64042 11.2284 9.77953 5.55381 12.7979C5.43307 12.7979 5.31234 12.9186 5.1916 13.0394C5.31234 13.0394 5.31234 13.1601 5.43307 13.1601C11.1076 16.2992 16.9029 19.3176 22.5774 22.4567C22.8189 22.5774 23.0604 22.5774 23.3018 22.4567C28.6142 19.5591 33.9265 16.7822 39.1181 13.8845C39.6011 13.6431 39.9633 13.2808 40.5669 13.0394ZM5.07087 22.8189C5.1916 22.9396 5.31234 22.9396 5.31234 23.0604C10.9869 26.0788 16.7822 29.2179 22.4567 32.2362C22.6982 32.357 22.8189 32.357 23.0604 32.2362C28.7349 29.2179 34.4095 26.0788 40.084 23.0604C40.2047 23.0604 40.3255 22.9396 40.4462 22.8189C38.6352 21.853 36.9449 20.8871 35.2546 20.042C35.0131 19.9213 34.7717 19.9213 34.5302 20.042C31.0289 21.9738 27.5276 23.7848 23.9055 25.7165C23.0604 26.1995 22.4567 26.1995 21.6116 25.7165C18.1102 23.7848 14.4882 21.853 10.9869 20.042C10.8661 19.8005 10.6247 19.8005 10.3832 19.9213C8.81365 20.7664 7.12336 21.7323 5.43307 22.5774C5.43307 22.6982 5.31234 22.6982 5.07087 22.8189ZM5.07087 32.5984C5.1916 32.7192 5.31234 32.7192 5.31234 32.7192C10.9869 35.8583 16.7822 38.8767 22.4567 42.0158C22.6982 42.1365 22.9396 42.1365 23.0604 42.0158C28.7349 38.9974 34.4095 35.979 39.9633 32.8399C40.084 32.7192 40.2047 32.7192 40.3255 32.5984C38.5145 31.6326 36.8242 30.6667 35.0131 29.7008C34.7717 29.5801 34.5302 29.5801 34.2887 29.7008C30.7874 31.6326 27.2861 33.4436 23.6641 35.3753C22.8189 35.8583 22.0945 35.8583 21.3701 35.3753C17.8688 33.4436 14.3675 31.5118 10.7454 29.7008C10.6247 29.5801 10.3832 29.5801 10.1417 29.5801C8.69292 30.6667 6.88189 31.6326 5.07087 32.5984Z" fill="#2D3353"/>
<path d="M59.4551 11.563H66.8802C68.1377 11.563 69.2954 11.8424 70.3532 12.4013C71.4311 12.9602 72.2794 13.7386 72.8981 14.7366C73.5369 15.7346 73.8562 16.8623 73.8562 18.1198C73.8562 19.3773 73.5369 20.505 72.8981 21.503C72.2794 22.501 71.4311 23.2795 70.3532 23.8384C69.2954 24.3972 68.1377 24.6767 66.8802 24.6767H62.8084V33H59.4551V11.563ZM66.9401 21.503C67.6786 21.503 68.3173 21.3434 68.8562 21.024C69.3952 20.6847 69.8043 20.2555 70.0838 19.7366C70.3632 19.2176 70.5029 18.6787 70.5029 18.1198C70.5029 17.5609 70.3632 17.022 70.0838 16.5031C69.8043 15.9841 69.3952 15.5649 68.8562 15.2456C68.3173 14.9262 67.6786 14.7665 66.9401 14.7665H62.8084V21.503H66.9401ZM81.8261 33.479C80.7283 33.479 79.7503 33.2695 78.892 32.8503C78.0337 32.4112 77.365 31.8024 76.886 31.024C76.407 30.2256 76.1674 29.3274 76.1674 28.3294C76.1674 26.7525 76.7563 25.505 77.9339 24.5869C79.1315 23.6687 80.6385 23.2096 82.4548 23.2096C83.353 23.2096 84.1614 23.2994 84.88 23.4791C85.5985 23.6388 86.1674 23.8184 86.5866 24.018V23.2396C86.5866 22.3014 86.2373 21.543 85.5387 20.9641C84.8401 20.3653 83.9419 20.0659 82.8441 20.0659C82.0656 20.0659 81.3271 20.2356 80.6285 20.5749C79.9499 20.9142 79.401 21.3833 78.9818 21.9821L76.6764 20.2156C77.3551 19.2775 78.2333 18.549 79.3111 18.03C80.389 17.511 81.5866 17.2516 82.9039 17.2516C85.1195 17.2516 86.8261 17.8005 88.0237 18.8983C89.2213 19.9761 89.8201 21.503 89.8201 23.4791V33H86.5866V31.1737H86.4369C85.9977 31.8323 85.379 32.3812 84.5806 32.8204C83.7822 33.2595 82.864 33.479 81.8261 33.479ZM82.395 30.7545C83.1934 30.7545 83.9119 30.5649 84.5506 30.1856C85.1894 29.8064 85.6884 29.2974 86.0476 28.6587C86.4069 28.02 86.5866 27.3314 86.5866 26.5928C86.1275 26.3334 85.5886 26.1238 84.9698 25.9641C84.371 25.8044 83.7423 25.7246 83.0836 25.7246C81.8461 25.7246 80.9379 25.9741 80.359 26.4731C79.7802 26.9521 79.4908 27.5809 79.4908 28.3593C79.4908 29.0579 79.7602 29.6367 80.2992 30.0958C80.8381 30.5349 81.5367 30.7545 82.395 30.7545ZM98.6856 32.1617L92.3383 17.7306H96.0209L100.332 28.1198H100.452L104.644 17.7306H108.266L98.8353 39.467H95.3623L98.6856 32.1617ZM111.855 11.563H116.406L122.573 27.8204H122.753L128.921 11.563H133.471V33H130.148V20.9941L130.328 17.1318H130.148L124.01 33H121.316L115.178 17.1318H114.998L115.178 20.9941V33H111.855V11.563ZM145.709 33.479C144.212 33.479 142.865 33.1297 141.667 32.4311C140.49 31.7325 139.562 30.7745 138.883 29.5569C138.224 28.3194 137.895 26.9322 137.895 25.3952C137.895 23.9382 138.214 22.5909 138.853 21.3533C139.512 20.0959 140.42 19.0979 141.577 18.3593C142.735 17.6208 144.053 17.2516 145.53 17.2516C147.066 17.2516 148.394 17.5909 149.512 18.2695C150.649 18.9482 151.508 19.8763 152.086 21.0539C152.685 22.2316 152.985 23.5589 152.985 25.036C152.985 25.3154 152.955 25.6647 152.895 26.0839H141.188C141.308 27.501 141.807 28.5988 142.685 29.3773C143.583 30.1357 144.621 30.515 145.799 30.515C146.737 30.515 147.546 30.3054 148.224 29.8862C148.923 29.4471 149.482 28.8583 149.901 28.1198L152.685 29.4371C151.967 30.6946 151.029 31.6826 149.871 32.4012C148.713 33.1198 147.326 33.479 145.709 33.479ZM149.631 23.5689C149.591 23.03 149.422 22.501 149.122 21.9821C148.823 21.4432 148.364 20.9941 147.745 20.6348C147.146 20.2755 146.408 20.0959 145.53 20.0959C144.472 20.0959 143.573 20.4152 142.835 21.0539C142.116 21.6727 141.617 22.511 141.338 23.5689H149.631ZM157.421 11.563H165.475C166.612 11.563 167.66 11.8125 168.618 12.3115C169.596 12.8105 170.375 13.4991 170.954 14.3773C171.533 15.2556 171.822 16.2236 171.822 17.2815C171.822 18.3394 171.553 19.2575 171.014 20.036C170.495 20.8144 169.806 21.4032 168.948 21.8024V21.9821C170.026 22.3613 170.894 22.9901 171.553 23.8683C172.231 24.7465 172.571 25.7745 172.571 26.9521C172.571 28.1298 172.261 29.1777 171.642 30.0958C171.044 31.014 170.225 31.7325 169.187 32.2515C168.169 32.7505 167.052 33 165.834 33H157.421V11.563ZM165.325 20.545C166.283 20.545 167.052 20.2456 167.63 19.6468C168.229 19.048 168.529 18.3593 168.529 17.5809C168.529 16.8025 168.239 16.1238 167.66 15.545C167.101 14.9462 166.363 14.6468 165.445 14.6468H160.774V20.545H165.325ZM165.834 29.8862C166.852 29.8862 167.66 29.5669 168.259 28.9282C168.878 28.2894 169.187 27.5509 169.187 26.7126C169.187 25.8543 168.868 25.1158 168.229 24.497C167.61 23.8583 166.772 23.539 165.714 23.539H160.774V29.8862H165.834ZM181.371 33.479C180.273 33.479 179.295 33.2695 178.437 32.8503C177.578 32.4112 176.91 31.8024 176.431 31.024C175.952 30.2256 175.712 29.3274 175.712 28.3294C175.712 26.7525 176.301 25.505 177.479 24.5869C178.676 23.6687 180.183 23.2096 182 23.2096C182.898 23.2096 183.706 23.2994 184.425 23.4791C185.143 23.6388 185.712 23.8184 186.131 24.018V23.2396C186.131 22.3014 185.782 21.543 185.083 20.9641C184.385 20.3653 183.487 20.0659 182.389 20.0659C181.61 20.0659 180.872 20.2356 180.173 20.5749C179.495 20.9142 178.946 21.3833 178.526 21.9821L176.221 20.2156C176.9 19.2775 177.778 18.549 178.856 18.03C179.934 17.511 181.131 17.2516 182.449 17.2516C184.664 17.2516 186.371 17.8005 187.568 18.8983C188.766 19.9761 189.365 21.503 189.365 23.4791V33H186.131V31.1737H185.982C185.542 31.8323 184.924 32.3812 184.125 32.8204C183.327 33.2595 182.409 33.479 181.371 33.479ZM181.94 30.7545C182.738 30.7545 183.457 30.5649 184.095 30.1856C184.734 29.8064 185.233 29.2974 185.592 28.6587C185.952 28.02 186.131 27.3314 186.131 26.5928C185.672 26.3334 185.133 26.1238 184.514 25.9641C183.916 25.8044 183.287 25.7246 182.628 25.7246C181.391 25.7246 180.483 25.9741 179.904 26.4731C179.325 26.9521 179.035 27.5809 179.035 28.3593C179.035 29.0579 179.305 29.6367 179.844 30.0958C180.383 30.5349 181.081 30.7545 181.94 30.7545ZM200.772 33.479C199.255 33.479 197.887 33.1297 196.67 32.4311C195.472 31.7325 194.534 30.7745 193.856 29.5569C193.197 28.3194 192.867 26.9222 192.867 25.3653C192.867 23.8084 193.197 22.4212 193.856 21.2036C194.534 19.9661 195.472 18.9981 196.67 18.2995C197.887 17.6009 199.255 17.2516 200.772 17.2516C202.448 17.2516 203.875 17.6308 205.053 18.3893C206.231 19.1478 207.069 20.1757 207.568 21.4731L204.544 22.7306C203.865 21.1138 202.578 20.3054 200.682 20.3054C199.863 20.3054 199.105 20.515 198.406 20.9342C197.728 21.3533 197.179 21.9521 196.76 22.7306C196.36 23.4891 196.161 24.3673 196.161 25.3653C196.161 26.3633 196.36 27.2515 196.76 28.03C197.179 28.8084 197.728 29.4072 198.406 29.8264C199.105 30.2455 199.863 30.4551 200.682 30.4551C201.64 30.4551 202.458 30.2455 203.137 29.8264C203.836 29.3872 204.364 28.7685 204.724 27.9701L207.688 29.2575C207.109 30.5549 206.231 31.5828 205.053 32.3413C203.875 33.0998 202.448 33.479 200.772 33.479ZM211.387 11.563H214.68V24.0479H214.77L221.027 17.7306H225.159V17.9102L219.231 23.8084L225.339 32.8204V33H221.417L216.926 26.0839L214.68 28.2695V33H211.387V11.563ZM228.817 11.563H232.171V29.7964H241.362V33H228.817V11.563ZM249.902 33.479C248.804 33.479 247.826 33.2695 246.968 32.8503C246.109 32.4112 245.441 31.8024 244.962 31.024C244.483 30.2256 244.243 29.3274 244.243 28.3294C244.243 26.7525 244.832 25.505 246.01 24.5869C247.207 23.6687 248.714 23.2096 250.531 23.2096C251.429 23.2096 252.237 23.2994 252.956 23.4791C253.674 23.6388 254.243 23.8184 254.662 24.018V23.2396C254.662 22.3014 254.313 21.543 253.614 20.9641C252.916 20.3653 252.018 20.0659 250.92 20.0659C250.141 20.0659 249.403 20.2356 248.704 20.5749C248.026 20.9142 247.477 21.3833 247.057 21.9821L244.752 20.2156C245.431 19.2775 246.309 18.549 247.387 18.03C248.465 17.511 249.662 17.2516 250.98 17.2516C253.195 17.2516 254.902 17.8005 256.099 18.8983C257.297 19.9761 257.896 21.503 257.896 23.4791V33H254.662V31.1737H254.513C254.073 31.8323 253.455 32.3812 252.656 32.8204C251.858 33.2595 250.94 33.479 249.902 33.479ZM250.471 30.7545C251.269 30.7545 251.988 30.5649 252.626 30.1856C253.265 29.8064 253.764 29.2974 254.123 28.6587C254.483 28.02 254.662 27.3314 254.662 26.5928C254.203 26.3334 253.664 26.1238 253.045 25.9641C252.447 25.8044 251.818 25.7246 251.159 25.7246C249.922 25.7246 249.014 25.9741 248.435 26.4731C247.856 26.9521 247.566 27.5809 247.566 28.3593C247.566 29.0579 247.836 29.6367 248.375 30.0958C248.914 30.5349 249.612 30.7545 250.471 30.7545ZM268.348 33.2395C267.669 33.2395 267.031 33.1297 266.432 32.9102C265.833 32.6906 265.344 32.4012 264.965 32.0419C264.107 31.1836 263.677 30.016 263.677 28.5389V20.6348H261.013V17.7306H263.677V13.4192H266.971V17.7306H270.683V20.6348H266.971V27.8204C266.971 28.6387 267.131 29.2176 267.45 29.5569C267.749 29.9561 268.268 30.1557 269.007 30.1557C269.346 30.1557 269.646 30.1158 269.905 30.0359C270.164 29.9361 270.444 29.7864 270.743 29.5868V32.7904C270.085 33.0898 269.286 33.2395 268.348 33.2395ZM281.105 33.479C279.608 33.479 278.26 33.1297 277.063 32.4311C275.885 31.7325 274.957 30.7745 274.278 29.5569C273.62 28.3194 273.29 26.9322 273.29 25.3952C273.29 23.9382 273.61 22.5909 274.248 21.3533C274.907 20.0959 275.815 19.0979 276.973 18.3593C278.131 17.6208 279.448 17.2516 280.925 17.2516C282.462 17.2516 283.789 17.5909 284.907 18.2695C286.045 18.9482 286.903 19.8763 287.482 21.0539C288.081 22.2316 288.38 23.5589 288.38 25.036C288.38 25.3154 288.35 25.6647 288.29 26.0839H276.584C276.703 27.501 277.202 28.5988 278.081 29.3773C278.979 30.1357 280.017 30.515 281.194 30.515C282.133 30.515 282.941 30.3054 283.62 29.8862C284.318 29.4471 284.877 28.8583 285.296 28.1198L288.081 29.4371C287.362 30.6946 286.424 31.6826 285.266 32.4012C284.109 33.1198 282.721 33.479 281.105 33.479ZM285.027 23.5689C284.987 23.03 284.817 22.501 284.518 21.9821C284.218 21.4432 283.759 20.9941 283.141 20.6348C282.542 20.2755 281.803 20.0959 280.925 20.0959C279.867 20.0959 278.969 20.4152 278.23 21.0539C277.512 21.6727 277.013 22.511 276.733 23.5689H285.027ZM292.277 17.7306H295.421V19.9761H295.571C295.91 19.1977 296.499 18.5589 297.337 18.0599C298.176 17.541 299.064 17.2815 300.002 17.2815C300.74 17.2815 301.359 17.3813 301.858 17.5809V20.9941C300.98 20.6747 300.192 20.515 299.493 20.515C298.734 20.515 298.056 20.7146 297.457 21.1138C296.878 21.513 296.419 22.0519 296.08 22.7306C295.74 23.3893 295.571 24.1178 295.571 24.9162V33H292.277V17.7306Z" fill="#2D3353"/>
</svg>
