<svg width="38" height="32" viewBox="0 0 38 32" fill="none" xmlns="http://www.w3.org/2000/svg">
<g clip-path="url(#clip0_436_48434)">
<path d="M37.2692 14.6127L15.3462 14.6127C15.1523 14.6127 14.9665 14.6897 14.8294 14.8267C14.6924 14.9638 14.6154 15.1496 14.6154 15.3434C14.6154 15.5373 14.6924 15.7231 14.8294 15.8602C14.9665 15.9972 15.1523 16.0742 15.3462 16.0742L37.2692 16.0742C37.463 16.0742 37.6489 15.9972 37.786 15.8602C37.923 15.7231 38 15.5373 38 15.3434C38 15.1496 37.923 14.9638 37.786 14.8267C37.6489 14.6897 37.463 14.6127 37.2692 14.6127Z" fill="black"/>
<path d="M0.73077 31.4219L37.2692 31.4219C37.463 31.4219 37.6489 31.3449 37.786 31.2078C37.923 31.0708 38 30.8849 38 30.6911C38 30.4973 37.923 30.3114 37.786 30.1744C37.6489 30.0373 37.463 29.9603 37.2692 29.9603L0.73077 29.9603C0.536958 29.9603 0.351095 30.0373 0.214049 30.1744C0.0770029 30.3114 7.96085e-07 30.4973 7.79142e-07 30.6911C7.62198e-07 30.8849 0.0770029 31.0708 0.214049 31.2078C0.351094 31.3449 0.536958 31.4219 0.73077 31.4219Z" fill="black"/>
<path d="M37.2692 -0.000600998L0.73077 -0.000604192C0.536958 -0.000604209 0.351095 0.0763868 0.214049 0.213433C0.0770029 0.350478 7.96085e-07 0.536353 7.79142e-07 0.730165C7.62198e-07 0.923977 0.0770029 1.10985 0.214049 1.2469C0.351094 1.38394 0.536958 1.46093 0.73077 1.46093L37.2692 1.46094C37.463 1.46094 37.6489 1.38395 37.786 1.2469C37.923 1.10985 38 0.92398 38 0.730168C38 0.536356 37.923 0.350482 37.786 0.213436C37.6489 0.07639 37.463 -0.000600981 37.2692 -0.000600998Z" fill="black"/>
</g>
<defs>
<clipPath id="clip0_436_48434">
<rect width="38" height="31.4231" fill="white" transform="translate(38 31.4219) rotate(-180)"/>
</clipPath>
</defs>
</svg>
