<svg width="70" height="70" viewBox="0 0 70 70" fill="none" xmlns="http://www.w3.org/2000/svg">
<path d="M61.1332 34.1793C61.3768 34.3606 61.6635 34.4496 61.9488 34.4496C62.3013 34.4496 62.652 34.3137 62.9169 34.0482L69.6007 27.3509C69.8813 27.0698 70.0256 26.6808 69.9965 26.2847C69.9674 25.8888 69.7676 25.525 69.4491 25.288L62.6172 20.2062V6.5625C62.6172 5.8074 62.005 5.19531 61.2501 5.19531H52.5001C51.7451 5.19531 51.1329 5.8074 51.1329 6.5625V11.6636L35.8161 0.270293C35.3317 -0.0900977 34.6684 -0.0900977 34.184 0.270293L22.2122 9.17561C21.6064 9.62623 21.4805 10.4828 21.9312 11.0886C22.382 11.6945 23.2385 11.8203 23.8442 11.3695L35 3.07125L66.5483 26.5383L61.8166 31.2797L35.8161 11.9394C35.3317 11.579 34.6684 11.579 34.184 11.9394L8.1836 31.2797L3.4519 26.5383L15.7119 17.4188C16.3177 16.9682 16.4436 16.1116 15.9928 15.5058C15.5421 14.8999 14.6857 14.7742 14.0799 15.2249L0.55114 25.288C0.232585 25.525 0.0328386 25.8888 0.00371746 26.2847C-0.0255404 26.6807 0.118971 27.0698 0.399518 27.3509L7.08329 34.0482C7.56276 34.5286 8.32224 34.5845 8.86706 34.1793L9.84378 33.4526V44.2969H2.7344C1.22667 44.2969 2.60557e-05 45.5235 2.60557e-05 47.0313V67.2656C2.60557e-05 68.7734 1.22667 70 2.7344 70H12.0313C13.397 70 14.5287 68.9925 14.7304 67.6825L21.089 69.9224C21.2349 69.9738 21.3885 70 21.5432 70H41.0656C43.3243 70 45.5175 69.1965 47.2416 67.7374L62.0304 55.2218C63.202 54.2303 63.8961 52.8404 63.9844 51.3081C64.0729 49.7757 63.5435 48.3152 62.4939 47.1955C61.8303 46.4875 61.022 45.9926 60.1563 45.713V33.4526L61.1332 34.1793ZM59.8829 18.1722L53.8672 13.6976V7.92969H59.8829V18.1722ZM12.0313 67.2656H2.7344V47.0313H6.01565V57.1484C6.01565 57.9035 6.62788 58.5156 7.38284 58.5156C8.1378 58.5156 8.75003 57.9035 8.75003 57.1484V47.0313H12.0313V48.1231C12.0313 48.1238 12.0313 48.1243 12.0313 48.125C12.0313 48.1257 12.0313 48.1262 12.0313 48.1269L12.0328 65.702C12.0313 65.7336 12.0321 65.765 12.0328 65.7963L12.0331 67.2656C12.0331 67.2656 12.0325 67.2656 12.0313 67.2656ZM60.4988 49.0654C61.031 49.633 61.2993 50.3735 61.2546 51.1503C61.2097 51.9272 60.8579 52.6318 60.2639 53.1345L45.475 65.6502C44.2442 66.692 42.6782 67.2656 41.0654 67.2656H21.777L14.7657 64.7958V49.4922H24.7947C26.1468 49.4922 27.456 49.8885 28.581 50.6386L37.7273 56.7361C38.1356 57.0083 38.4078 57.4242 38.4938 57.9074C38.5798 58.3905 38.4679 58.8749 38.1786 59.2713C37.6728 59.9643 36.7435 60.1995 35.9694 59.8292L28.1446 56.0916C27.4629 55.7661 26.6469 56.0546 26.3215 56.736C25.996 57.4172 26.2845 58.2334 26.9659 58.5588L34.7907 62.2965C35.4147 62.5946 36.0783 62.7376 36.7347 62.7376C38.1412 62.7376 39.5137 62.0802 40.3874 60.8829C41.1201 59.8789 41.4037 58.6518 41.1859 57.4279C40.968 56.2041 40.2783 55.1504 39.2441 54.4608L30.0977 48.3633C28.5222 47.313 26.6884 46.7578 24.7948 46.7578H14.7519C14.6324 45.5606 13.7377 44.5884 12.5783 44.352V31.4187L35.0002 14.7402L57.4221 31.4187V45.5387H57.4219C56.5128 45.709 55.6347 46.1079 54.8791 46.7429L43.9957 55.891C43.4177 56.3768 43.343 57.2392 43.8288 57.8173C44.3148 58.3953 45.1771 58.4698 45.7552 57.9841L56.6385 48.8359C57.7819 47.8749 59.4776 47.9757 60.4988 49.0654Z" fill="#6161FF"/>
<path d="M20.0483 12.2397C19.7941 11.9854 19.4414 11.8391 19.0818 11.8391C18.7207 11.8391 18.368 11.9854 18.1138 12.2397C17.8595 12.494 17.7146 12.8467 17.7146 13.2063C17.7146 13.5659 17.8595 13.9186 18.1138 14.1729C18.3695 14.4272 18.7208 14.5735 19.0818 14.5735C19.4414 14.5735 19.7926 14.4272 20.0483 14.1729C20.3025 13.9186 20.449 13.5659 20.449 13.2063C20.449 12.8467 20.3027 12.494 20.0483 12.2397Z" fill="#6161FF"/>
<path d="M40.2289 26.4205C39.5714 26.0492 38.7375 26.2812 38.3663 26.9389L29.2682 43.0549C28.897 43.7124 29.129 44.5464 29.7866 44.9176C29.9991 45.0375 30.2297 45.0945 30.4575 45.0945C30.9345 45.0945 31.398 44.8443 31.6493 44.3991L40.7474 28.2832C41.1186 27.6257 40.8865 26.7917 40.2289 26.4205Z" fill="#6161FF"/>
<path d="M41.0237 36.7648C38.4605 36.7648 36.3752 38.85 36.3752 41.4132C36.3752 43.9764 38.4605 46.0616 41.0237 46.0616C43.5869 46.0616 45.6721 43.9764 45.6721 41.4132C45.6721 38.85 43.5869 36.7648 41.0237 36.7648ZM41.0237 43.3273C39.9682 43.3273 39.1096 42.4687 39.1096 41.4132C39.1096 40.3577 39.9682 39.4991 41.0237 39.4991C42.0792 39.4991 42.9377 40.3577 42.9377 41.4132C42.9377 42.4687 42.0792 43.3273 41.0237 43.3273Z" fill="#6161FF"/>
<path d="M28.9932 23.5177C26.43 23.5177 24.3447 25.6029 24.3447 28.1661C24.3447 30.7293 26.43 32.8146 28.9932 32.8146C31.5564 32.8146 33.6416 30.7293 33.6416 28.1661C33.6416 25.6029 31.5564 23.5177 28.9932 23.5177ZM28.9932 30.0802C27.9377 30.0802 27.0791 29.2216 27.0791 28.1661C27.0791 27.1107 27.9377 26.2521 28.9932 26.2521C30.0486 26.2521 30.9072 27.1107 30.9072 28.1661C30.9072 29.2216 30.0486 30.0802 28.9932 30.0802Z" fill="#6161FF"/>
<path d="M8.41764 61.5822C8.16348 61.3279 7.81074 61.1816 7.45117 61.1816C7.0916 61.1816 6.73887 61.3279 6.48457 61.5822C6.22891 61.8365 6.08398 62.1893 6.08398 62.5488C6.08398 62.9084 6.22891 63.2611 6.48457 63.5154C6.73887 63.7697 7.0916 63.916 7.45117 63.916C7.81074 63.916 8.16348 63.7697 8.41764 63.5154C8.67193 63.2611 8.81836 62.9084 8.81836 62.5488C8.81836 62.1893 8.67207 61.8365 8.41764 61.5822Z" fill="#6161FF"/>
</svg>
