<svg width="57" height="63" viewBox="0 0 57 63" fill="none" xmlns="http://www.w3.org/2000/svg">
<path d="M11.0789 55.5611H11.0133C10.6976 55.544 10.4016 55.4022 10.1904 55.1668C9.97925 54.9315 9.8702 54.6219 9.88726 54.3061C9.93589 53.474 9.80545 52.6411 9.50474 51.8637C9.20403 51.0863 8.74005 50.3824 8.14411 49.7996C5.57075 47.303 1.9041 42.6809 0.848072 40.2312C0.611081 39.6812 -0.10958 38.0074 1.49346 30.382C2.28343 26.6266 3.38045 22.682 3.90734 21.0804C4.09142 20.52 4.6213 19.5206 5.32333 19.0682C6.03952 18.6054 6.90252 18.1292 8.08077 18.3528C9.84926 18.6897 11.1363 20.4395 10.947 22.2572L9.78367 33.5202C9.74966 33.8336 9.59297 34.1207 9.34786 34.3189C9.10274 34.517 8.78915 34.61 8.47563 34.5776C8.16212 34.5452 7.87419 34.39 7.67479 34.1459C7.47538 33.9018 7.38073 33.5887 7.41153 33.275L8.57934 22.0075C8.63971 21.424 8.19255 20.7965 7.64107 20.6914C7.41004 20.6482 7.23416 20.6705 6.6305 21.0596C6.50679 21.1654 6.25787 21.5559 6.17292 21.8235C5.66316 23.3728 4.59819 27.2042 3.8276 30.8708C2.48614 37.2599 2.88411 38.9263 3.03837 39.2855C3.8902 41.2604 7.17752 45.5375 9.8038 48.0847C10.6447 48.9049 11.2999 49.8959 11.7251 50.9909C12.1502 52.0859 12.3355 53.2593 12.2684 54.4321C12.2521 54.7367 12.1198 55.0235 11.8986 55.2335C11.6773 55.4436 11.384 55.5608 11.0789 55.5611Z" fill="black"/>
<path d="M20.2812 53.1277C19.9729 53.128 19.6765 53.0088 19.4542 52.7952C19.2319 52.5817 19.1009 52.2903 19.0888 51.9823C18.9398 48.1233 18.699 47.042 18.6044 46.7565C18.1058 45.2616 14.7984 38.1556 10.9514 34.6044C10.61 34.2892 10.2098 34.1453 9.82081 34.2005C9.44819 34.2527 9.11804 34.4882 8.88925 34.8638C8.87658 34.8861 8.85944 34.9144 8.84379 34.9435C8.71708 35.1739 8.66149 35.4367 8.68404 35.6987C8.70658 35.9606 8.80626 36.21 8.97048 36.4154L12.3748 40.7692C12.5509 41.019 12.6243 41.3269 12.5799 41.6293C12.5356 41.9317 12.3768 42.2055 12.1363 42.3942C11.8959 42.5828 11.5922 42.672 11.2879 42.6432C10.9836 42.6145 10.702 42.47 10.5012 42.2396L7.09765 37.8858C6.64399 37.3116 6.3703 36.6161 6.31102 35.8867C6.25174 35.1574 6.40953 34.4268 6.76453 33.7869C6.79285 33.7362 6.82266 33.684 6.85321 33.6334C7.45463 32.6437 8.41825 31.9938 9.49365 31.841C10.5877 31.6868 11.7108 32.0564 12.5745 32.8546C17.1765 37.1025 20.5257 44.9657 20.8722 46.0053C20.9765 46.3198 21.2955 47.2767 21.4773 51.8928C21.4835 52.0493 21.4588 52.2055 21.4046 52.3525C21.3505 52.4994 21.2679 52.6343 21.1616 52.7493C21.0553 52.8643 20.9273 52.9572 20.7851 53.0228C20.6429 53.0884 20.4891 53.1253 20.3326 53.1315L20.2812 53.1277Z" fill="black"/>
<path d="M11.0711 62.3608C10.4314 62.359 9.81017 62.1463 9.30368 61.7555C8.79718 61.3648 8.43375 60.8179 8.26973 60.1995L7.44995 57.0948C7.2532 56.3507 7.36008 55.559 7.74708 54.8937C8.13408 54.2285 8.7695 53.7442 9.51356 53.5474L21.2141 50.4538C21.9581 50.2583 22.7493 50.3658 23.4142 50.7526C24.0792 51.1394 24.5636 51.774 24.7615 52.5174L25.5812 55.6222C25.7768 56.3662 25.6693 57.1574 25.2825 57.8223C24.8957 58.4873 24.261 58.9718 23.5176 59.1696L11.8171 62.2631C11.5738 62.3279 11.323 62.3608 11.0711 62.3608ZM21.9519 52.7418C21.907 52.7419 21.8624 52.7479 21.8192 52.7597L10.1187 55.8525C10.053 55.8699 9.99141 55.9 9.9374 55.9413C9.88338 55.9825 9.83802 56.0339 9.8039 56.0927C9.76978 56.1515 9.74757 56.2164 9.73855 56.2837C9.72952 56.3511 9.73385 56.4195 9.75129 56.4852L10.5711 59.5899C10.6062 59.7224 10.6925 59.8355 10.811 59.9044C10.9295 59.9733 11.0705 59.9923 11.203 59.9573L22.9035 56.8645C23.0357 56.8285 23.1484 56.742 23.2172 56.6236C23.2861 56.5052 23.3057 56.3645 23.2717 56.2318L22.4519 53.1271C22.4222 53.0171 22.3572 52.92 22.2671 52.8504C22.1769 52.7809 22.0665 52.7427 21.9526 52.7418H21.9519Z" fill="black"/>
<path d="M45.9939 55.5603C45.6885 55.5607 45.3945 55.4439 45.1726 55.234C44.9508 55.024 44.8179 54.737 44.8015 54.4319C44.7344 53.2592 44.9196 52.0857 45.3448 50.9908C45.77 49.8958 46.4251 48.9047 47.2661 48.0846C49.8923 45.5373 53.1797 41.2603 54.0315 39.2846C54.1858 38.9262 54.5852 37.2598 53.2423 30.8707C52.4717 27.2041 51.4067 23.3727 50.8969 21.8233C50.809 21.5558 50.5631 21.1653 50.4394 21.0594C49.8357 20.6697 49.6598 20.6481 49.4281 20.692C48.8773 20.7964 48.4302 21.4239 48.4905 22.0074L49.6583 33.2749C49.6831 33.4347 49.6751 33.5978 49.6348 33.7544C49.5945 33.911 49.5228 34.0578 49.424 34.1858C49.3252 34.3138 49.2015 34.4204 49.0602 34.499C48.919 34.5777 48.7632 34.6269 48.6023 34.6434C48.4415 34.66 48.279 34.6437 48.1247 34.5956C47.9703 34.5474 47.8274 34.4683 47.7045 34.3632C47.5817 34.258 47.4816 34.129 47.4102 33.984C47.3387 33.8389 47.2976 33.6808 47.2892 33.5194L46.1243 22.2533C45.9365 20.4364 47.2221 18.6851 48.9891 18.349C50.1718 18.1254 51.0348 18.6009 51.7518 19.0644C52.4545 19.5183 52.9844 20.5176 53.1677 21.0766C53.6946 22.6781 54.7917 26.6228 55.5816 30.3781C57.1847 38.0036 56.464 39.6774 56.227 40.2266C55.171 42.677 51.5043 47.2991 48.9317 49.795C48.3356 50.3778 47.8714 51.0818 47.5706 51.8594C47.2698 52.6369 47.1392 53.47 47.1878 54.3023C47.2049 54.618 47.0958 54.9276 46.8847 55.163C46.6735 55.3983 46.3775 55.5402 46.0617 55.5573L45.9939 55.5603Z" fill="black"/>
<path d="M36.792 53.1275H36.7443C36.5878 53.1214 36.434 53.0845 36.2918 53.0189C36.1496 52.9533 36.0216 52.8604 35.9153 52.7454C35.809 52.6303 35.7264 52.4955 35.6723 52.3486C35.6181 52.2016 35.5934 52.0454 35.5996 51.8889C35.7814 47.2758 36.1004 46.3189 36.2047 46.0014C36.5513 44.9581 39.9004 37.0986 44.5024 32.8507C45.3661 32.0525 46.4892 31.6828 47.5833 31.8371C48.6616 31.9862 49.6223 32.6398 50.2207 33.6257C50.2543 33.6816 50.2841 33.7338 50.3139 33.7867C50.6686 34.4268 50.826 35.1574 50.7665 35.8868C50.707 36.6161 50.4331 37.3115 49.9792 37.8856L46.5757 42.2394C46.3809 42.4885 46.0951 42.6501 45.7812 42.6885C45.4673 42.7269 45.151 42.6391 44.9018 42.4443C44.6527 42.2495 44.4911 41.9638 44.4527 41.6498C44.4143 41.3359 44.5021 41.0196 44.6969 40.7705L48.1005 36.4167C48.2646 36.212 48.3645 35.9633 48.3876 35.7019C48.4107 35.4405 48.3559 35.1781 48.2301 34.9478C48.2123 34.9158 48.1951 34.8874 48.1787 34.8599C47.9551 34.4872 47.6235 34.254 47.2509 34.2018C46.8626 34.1467 46.4616 34.2905 46.1203 34.6057C42.2733 38.1569 38.9659 45.2629 38.4673 46.7579C38.3727 47.0433 38.1349 48.1247 37.9829 51.9836C37.9704 52.2911 37.8395 52.5819 37.6175 52.7951C37.3955 53.0083 37.0997 53.1274 36.792 53.1275Z" fill="black"/>
<path d="M46.0023 62.3608C45.7507 62.3607 45.5001 62.3279 45.257 62.2631L33.5565 59.1696C32.8131 58.9718 32.1785 58.4873 31.7916 57.8223C31.4048 57.1574 31.2974 56.3662 31.4929 55.6222L32.3127 52.5174C32.5105 51.774 32.995 51.1394 33.6599 50.7526C34.3249 50.3658 35.1161 50.2583 35.8601 50.4538L47.5606 53.5474C47.9294 53.6445 48.2754 53.8133 48.5789 54.0443C48.8823 54.2752 49.1373 54.5636 49.3293 54.8932C49.5212 55.2227 49.6463 55.5868 49.6974 55.9647C49.7485 56.3426 49.7247 56.7269 49.6272 57.0955L48.8074 60.1995C48.6434 60.8179 48.2799 61.3648 47.7734 61.7555C47.267 62.1463 46.6457 62.359 46.006 62.3608H46.0023ZM35.1215 52.7418C35.0077 52.7427 34.8972 52.7809 34.8071 52.8504C34.7169 52.92 34.652 53.0171 34.6222 53.1271L33.8024 56.2318C33.7685 56.3645 33.788 56.5052 33.8569 56.6236C33.9258 56.742 34.0385 56.8285 34.1706 56.8645L45.8711 59.9573C46.0036 59.9923 46.1446 59.9733 46.2631 59.9044C46.3816 59.8355 46.4679 59.7224 46.5031 59.5899L47.3229 56.4852C47.3403 56.4195 47.3446 56.3511 47.3356 56.2837C47.3266 56.2164 47.3044 56.1515 47.2702 56.0927C47.2361 56.0339 47.1908 55.9825 47.1367 55.9413C47.0827 55.9 47.0211 55.8699 46.9554 55.8525L35.2549 52.7597C35.2105 52.7478 35.1646 52.742 35.1186 52.7425L35.1215 52.7418Z" fill="black"/>
<path d="M28.3001 30.5952C27.6448 30.5925 27.0006 30.4255 26.4266 30.1093C25.8525 29.7932 25.3669 29.3381 25.0143 28.7857C24.9249 28.6544 24.8627 28.5066 24.8312 28.3509C24.7998 28.1953 24.7997 28.0349 24.8311 27.8792C24.8625 27.7235 24.9246 27.5756 25.0139 27.4443C25.1032 27.3129 25.2179 27.2008 25.3511 27.1143C25.4844 27.0279 25.6335 26.969 25.7899 26.941C25.9462 26.913 26.1066 26.9165 26.2615 26.9513C26.4165 26.9862 26.5629 27.0516 26.6922 27.1438C26.8215 27.236 26.9311 27.3531 27.0146 27.4882C27.1515 27.7064 27.3409 27.8868 27.5655 28.0129C27.79 28.1391 28.0426 28.207 28.3001 28.2104C28.5043 28.2095 28.7062 28.167 28.8933 28.0855C29.0805 28.004 29.2492 27.8852 29.389 27.7364C29.6973 27.4122 29.8675 26.9809 29.8637 26.5336C29.8637 25.7048 29.298 24.9998 28.5401 24.8754C28.4455 24.8701 28.3493 24.8605 28.2539 24.8478C26.2969 24.5832 24.822 22.852 24.8258 20.8197C24.821 19.7561 25.2299 18.7323 25.966 17.9646C26.3276 17.5832 26.7632 17.2796 27.2462 17.0723C27.7291 16.8649 28.2493 16.7583 28.7749 16.7588C29.4302 16.7611 30.0745 16.9279 30.6486 17.2439C31.2227 17.56 31.7082 18.0151 32.0607 18.5675C32.1501 18.6988 32.2123 18.8466 32.2438 19.0023C32.2752 19.158 32.2753 19.3184 32.2439 19.4741C32.2125 19.6298 32.1504 19.7776 32.0611 19.9089C31.9718 20.0403 31.8571 20.1525 31.7239 20.2389C31.5907 20.3253 31.4415 20.3843 31.2852 20.4123C31.1288 20.4402 30.9685 20.4367 30.8135 20.4019C30.6586 20.3671 30.5121 20.3016 30.3828 20.2094C30.2535 20.1172 30.1439 20.0001 30.0604 19.865C29.9235 19.6469 29.7341 19.4667 29.5095 19.3406C29.2849 19.2146 29.0324 19.1469 28.7749 19.1436C28.5706 19.1443 28.3687 19.1866 28.1813 19.268C27.994 19.3493 27.8252 19.468 27.6853 19.6168C27.377 19.941 27.2067 20.3723 27.2106 20.8197C27.2106 21.6633 27.7971 22.3788 28.5759 22.4838C28.6214 22.4905 28.6668 22.4943 28.71 22.4965C28.7469 22.4979 28.7838 22.5011 28.8203 22.5062C30.7774 22.77 32.2522 24.502 32.2485 26.5306C32.2532 27.5942 31.8444 28.6179 31.1083 29.3856C30.747 29.7676 30.3117 30.0718 29.8289 30.2798C29.346 30.4878 28.8259 30.5951 28.3001 30.5952Z" fill="black"/>
<path d="M29.7295 15.711C29.7295 15.0524 29.1957 14.5186 28.5371 14.5186C27.8786 14.5186 27.3447 15.0524 27.3447 15.711V17.9631C27.3447 18.6217 27.8786 19.1555 28.5371 19.1555C29.1957 19.1555 29.7295 18.6217 29.7295 17.9631V15.711Z" fill="black"/>
<path d="M29.7286 29.3906C29.7286 28.7321 29.1947 28.1982 28.5362 28.1982C27.8776 28.1982 27.3438 28.7321 27.3438 29.3906V31.6428C27.3438 32.3014 27.8776 32.8352 28.5362 32.8352C29.1947 32.8352 29.7286 32.3014 29.7286 31.6428V29.3906Z" fill="black"/>
<path d="M29.3009 36.7852C27.6739 36.7817 26.0502 36.6409 24.447 36.3641C22.9073 36.2665 21.9042 35.8477 21.0188 35.4773C20.208 35.1389 19.4426 34.8192 18.2055 34.7156C16.8059 34.5986 15.8773 34.1 15.4436 33.2333C15.1455 32.6371 14.9786 31.6124 15.8907 30.1562C15.9349 30.0871 15.9648 30.01 15.9787 29.9292C15.9925 29.8484 15.99 29.7657 15.9712 29.6859C15.6381 28.293 15.1857 25.429 15.8922 21.895C16.7649 17.5353 19.0864 13.5727 22.7933 10.12L22.8283 10.0879L24.2383 8.87541C24.3331 8.79525 24.3989 8.68627 24.4258 8.56514C24.4527 8.44402 24.4392 8.31741 24.3874 8.20468C23.2263 5.72224 22.3566 5.05151 22.1434 5.00977C20.8765 4.87935 20.5784 3.98728 20.5165 3.71676C20.3161 2.83363 20.8929 1.83126 21.9862 1.16352C23.3142 0.356405 24.7958 0.399629 25.8533 1.28499C26.1887 1.5667 26.6299 1.78655 27.3543 1.28499C28.0932 0.767235 28.9557 0.45361 29.8546 0.375782C31.0701 0.281879 32.103 0.513653 32.922 1.06887C33.3036 1.32747 33.7329 1.50335 34.189 1.68967C35.1094 2.06825 36.2548 2.53925 36.7445 3.83898C36.8356 4.07987 36.878 4.33646 36.8691 4.59386C36.8603 4.85126 36.8005 5.10435 36.693 5.33843C36.6022 5.53237 36.4727 5.70571 36.3126 5.84783C36.1524 5.98994 35.9648 6.09785 35.7615 6.16492C34.9494 6.43065 34.2006 6.86035 33.5615 7.42738C33.0711 7.87453 32.8975 8.22033 32.8505 8.37162C32.9197 8.40806 32.9923 8.43752 33.0674 8.45956C34.7494 8.97378 36.9166 11.4301 38.5882 14.7197C39.7136 16.9316 41.5163 21.3607 40.941 26.1661C40.9365 26.2018 40.9306 26.2406 40.9231 26.2726C40.8195 26.803 40.7557 27.3403 40.7323 27.8801C40.6921 28.9496 40.8814 29.4079 40.9626 29.4988C41.5976 29.8141 41.9404 30.4274 41.8569 31.1041C41.8092 31.4991 41.681 32.5477 38.5152 34.3229C36.7534 35.3088 34.7785 36.0914 33.2313 36.417C31.9279 36.6913 30.5611 36.7852 29.3009 36.7852ZM17.5922 32.1564C17.6779 32.2034 17.9029 32.2973 18.4023 32.339C20.0142 32.4739 21.0352 32.9002 21.9363 33.2765C22.7657 33.6231 23.4827 33.9227 24.6594 33.9883C24.7129 33.9914 24.7662 33.9978 24.8189 34.0076C24.8614 34.0158 29.1898 34.8274 32.7402 34.0822C33.9535 33.8273 35.5565 33.2035 37.0284 32.4143C38.1031 31.8374 38.7663 31.362 39.1412 31.0423C38.586 30.3879 38.3214 29.3699 38.3415 28.0009C38.3595 27.2727 38.4381 26.5473 38.5763 25.8322C39.0592 21.6699 37.4584 17.7611 36.4605 15.7973C34.8955 12.7224 33.0935 10.9614 32.3676 10.7385C30.6535 10.2169 30.453 8.97378 30.4485 8.46478C30.4329 6.80882 32.1626 5.15882 34.0921 4.26377C33.8287 4.12521 33.5575 4.00204 33.2798 3.89487C32.7581 3.68099 32.1701 3.43878 31.5851 3.0423C31.1379 2.73824 30.4992 2.71812 30.0424 2.75389C29.5622 2.79898 29.1024 2.96965 28.7091 3.24874C27.2581 4.24961 25.6178 4.19894 24.3211 3.11236C24.2152 3.02367 24.0528 2.92977 23.7346 2.99312C23.6666 3.00675 23.5998 3.02568 23.5348 3.04975C24.5581 3.69067 25.5522 5.06194 26.5464 7.1971C26.8159 7.78087 26.8883 8.43647 26.7525 9.06496C26.6167 9.69346 26.2802 10.2607 25.7937 10.6812L24.4016 11.878C16.6382 19.1271 17.7613 26.915 18.2905 29.1307C18.3818 29.5189 18.3953 29.9214 18.3302 30.3149C18.2651 30.7083 18.1227 31.085 17.9111 31.4231C17.6771 31.7957 17.6063 32.0454 17.5922 32.1564Z" fill="black"/>
<path d="M31.6411 9.62896H25.6299C25.3137 9.62896 25.0104 9.50333 24.7867 9.27971C24.5631 9.05609 24.4375 8.75279 24.4375 8.43655C24.4375 8.1203 24.5631 7.81701 24.7867 7.59339C25.0104 7.36977 25.3137 7.24414 25.6299 7.24414H31.6411C31.9574 7.24414 32.2607 7.36977 32.4843 7.59339C32.7079 7.81701 32.8335 8.1203 32.8335 8.43655C32.8335 8.75279 32.7079 9.05609 32.4843 9.27971C32.2607 9.50333 31.9574 9.62896 31.6411 9.62896Z" fill="black"/>
</svg>
