<svg width="101" height="86" viewBox="0 0 101 86" fill="none" xmlns="http://www.w3.org/2000/svg">
<path d="M26.1993 66.1484C27.4024 66.1484 28.3776 65.1731 28.3776 63.9701C28.3776 62.767 27.4024 61.7917 26.1993 61.7917C24.9963 61.7917 24.021 62.767 24.021 63.9701C24.021 65.1731 24.9963 66.1484 26.1993 66.1484Z" fill="#6161FF"/>
<path d="M33.4725 66.1482C34.6756 66.1482 35.6508 65.1729 35.6508 63.9698C35.6508 62.7668 34.6756 61.7915 33.4725 61.7915C32.2695 61.7915 31.2942 62.7668 31.2942 63.9698C31.2942 65.1729 32.2695 66.1482 33.4725 66.1482Z" fill="#6161FF"/>
<path d="M37.8257 11.5886H24.7586C23.5556 11.5886 22.5803 12.5639 22.5803 13.7669C22.5803 14.97 23.5556 15.9453 24.7586 15.9453H37.8257C39.0287 15.9453 40.004 14.97 40.004 13.7669C40.004 12.5639 39.0287 11.5886 37.8257 11.5886Z" fill="#6161FF"/>
<path d="M32.0147 19.0618H24.7594C23.5563 19.0618 22.5811 20.037 22.5811 21.2401C22.5811 22.4431 23.5563 23.4184 24.7594 23.4184H32.0147C33.2177 23.4184 34.193 22.4431 34.193 21.2401C34.193 20.037 33.2177 19.0618 32.0147 19.0618Z" fill="#6161FF"/>
<path d="M63.0391 85.2301C62.2636 85.2301 61.4852 85.0529 60.7708 84.6957L52.162 80.3913C51.9297 80.2751 51.6508 80.2925 51.433 80.4378L45.7287 84.2426C44.0209 85.3811 41.7961 85.3811 40.0883 84.2426L34.384 80.4378C34.169 80.2925 33.8931 80.278 33.6608 80.3913L25.052 84.6957C23.4197 85.5118 21.4709 85.3898 19.9518 84.3762L13.9484 80.3652C12.5368 79.4212 11.6887 77.8354 11.6887 76.1363V20.0981H16.0454V76.1363L16.3678 76.7404L22.3741 80.7514C22.592 80.8967 22.8679 80.9141 23.1031 80.7979L31.7119 76.4935C33.3442 75.6774 35.2843 75.7994 36.8034 76.8101L42.5048 80.612C42.7487 80.7747 43.0682 80.7747 43.3122 80.612L49.0136 76.8101C50.5326 75.7965 52.4757 75.6774 54.108 76.4935L62.7138 80.795C62.9462 80.9112 63.225 80.8938 63.4428 80.7485L69.4492 76.7375L69.7716 76.1334V72.3809C69.7716 71.1784 70.7475 70.2025 71.9499 70.2025C73.1524 70.2025 74.1282 71.1784 74.1282 72.3809V76.1334C74.1282 77.8325 73.2801 79.4183 71.8686 80.3622L65.8651 84.3733C65.0141 84.9396 64.0266 85.2272 63.0362 85.2272L63.0391 85.2301Z" fill="#6161FF"/>
<path d="M71.9532 15.9453C70.7508 15.9453 69.7749 14.9695 69.7749 13.767V10.8916C69.7749 7.28142 66.8501 4.35665 63.2399 4.35665H8.05566V0H63.2399C69.255 0 74.1315 4.87654 74.1315 10.8916V13.767C74.1315 14.9695 73.1556 15.9453 71.9532 15.9453Z" fill="#6161FF"/>
<path d="M16.0425 45.0187H8.05531C3.64928 45.0187 0.0681152 41.4376 0.0681152 37.0315V7.98719C0.0681152 3.58117 3.64928 0 8.05531 0C12.4613 0 16.0425 3.58117 16.0425 7.98719V45.0187ZM8.05531 4.35665C6.05415 4.35665 4.42477 5.98604 4.42477 7.98719V37.0315C4.42477 39.0327 6.05415 40.6621 8.05531 40.6621H11.6859V7.98719C11.6859 5.98604 10.0565 4.35665 8.05531 4.35665Z" fill="#6161FF"/>
<path d="M94.9644 25.4138H51.8517C48.5236 25.4138 45.8159 28.1215 45.8159 31.4496V57.3172C45.8159 60.6453 48.5236 63.353 51.8517 63.353H94.9644C98.2925 63.353 101 60.6453 101 57.3172V31.4496C101 28.1215 98.2925 25.4138 94.9644 25.4138ZM51.8517 28.8628H94.9644C96.3907 28.8628 97.5511 30.0233 97.5511 31.4496V34.8986H49.2649V31.4496C49.2649 30.0233 50.4254 28.8628 51.8517 28.8628ZM94.9644 59.904H51.8517C50.4254 59.904 49.2649 58.7435 49.2649 57.3172V38.3476H97.5511V57.3172C97.5511 58.7435 96.3907 59.904 94.9644 59.904Z" fill="#6161FF"/>
<path d="M57.8877 54.7304H56.1632C55.2109 54.7304 54.4387 53.9583 54.4387 53.0059V51.2814C54.4387 50.329 55.2109 49.5569 56.1632 49.5569H57.8877C58.8401 49.5569 59.6122 50.329 59.6122 51.2814V53.0059C59.6122 53.9583 58.8401 54.7304 57.8877 54.7304Z" fill="#6161FF"/>
</svg>
