<svg width="77" height="70" viewBox="0 0 77 70" fill="none" xmlns="http://www.w3.org/2000/svg">
<path d="M44.1566 38.7853C43.3331 38.7853 42.6648 39.4536 42.6648 40.2771C42.6648 41.1005 43.3331 41.7689 44.1566 41.7689C44.98 41.7689 45.6484 41.1005 45.6484 40.2771C45.6484 39.4536 44.98 38.7853 44.1566 38.7853Z" fill="#6161FF"/>
<path d="M57.4666 46.818C56.0682 45.4203 52.6769 41.6374 50.0016 35.5026C48.0121 30.7292 43.3859 27.6455 38.2123 27.6455C33.0396 27.6455 28.4142 30.7296 26.4243 35.5041C23.0678 43.2026 18.4823 47.2767 18.4383 47.3152C18.433 47.3198 18.4277 47.3246 18.4225 47.3292C15.7179 49.7508 14.1667 53.2198 14.1667 56.8467C14.1667 61.2804 16.2781 65.1362 19.9407 67.5793C23.3533 69.8561 27.583 70.5387 31.5444 69.4526C33.5297 68.9086 35.8275 68.621 38.1899 68.621C40.5921 68.621 42.9239 68.9182 44.9332 69.4803C48.7783 70.5566 52.9987 69.9665 56.4828 67.6645C60.1875 65.2166 62.3354 61.3244 62.3354 56.8467C62.3354 52.9085 60.5622 49.2588 57.4666 46.818ZM54.8376 65.1752C52.149 66.9516 48.832 67.4734 45.737 66.6071C43.4693 65.9727 40.8596 65.6375 38.1894 65.6375C35.5645 65.6375 32.994 65.9618 30.7553 66.5752C27.6276 67.4328 24.2893 66.8941 21.596 65.0974C18.784 63.2215 17.1499 60.2888 17.1499 56.8465C17.1499 54.0697 18.3367 51.4133 20.4063 49.5572C20.7246 49.2781 25.5658 44.9438 29.164 36.6845C29.1673 36.6768 29.1707 36.669 29.1738 36.6613C30.6966 32.9968 34.2441 30.6291 38.2117 30.6291C42.1807 30.6289 45.7289 32.9963 47.2513 36.6598C47.2544 36.6675 47.2579 36.6753 47.2612 36.6831C50.183 43.3886 53.945 47.5283 55.4266 48.9972C55.4693 49.0392 55.5143 49.0789 55.5615 49.1156C57.9701 50.9871 59.3513 53.8049 59.3513 56.8465C59.3516 60.3174 57.691 63.29 54.8376 65.1752Z" fill="#6161FF"/>
<path d="M48.2211 44.7232C47.7715 44.033 46.8475 43.8374 46.157 44.2872C45.4664 44.7371 45.2713 45.6613 45.7209 46.3515C47.991 49.8368 50.1433 52.158 51.2246 53.2315C51.809 53.8118 52.7536 53.8087 53.3344 53.2239C53.9148 52.6393 53.9114 51.6947 53.3268 51.1141C52.3297 50.1241 50.3405 47.9776 48.2211 44.7232Z" fill="#6161FF"/>
<path d="M33.356 20.3722C34.7894 17.8667 35.387 14.539 34.9956 11.2432C34.2384 4.82655 29.813 -0.548813 24.8688 0.0449185C22.6361 0.309114 20.6512 1.77465 19.2786 4.1715C17.846 6.67502 17.2484 10.0028 17.639 13.3009C18.8758 23.78 28.631 28.6258 33.356 20.3722ZM21.868 5.65359C22.6846 4.227 23.9585 2.98643 25.6005 2.98643C28.5365 2.98643 31.4821 6.92758 32.0329 11.5939C32.3507 14.2691 31.8891 16.9285 30.7667 18.8902C27.3286 24.8968 21.4142 19.8327 20.6018 12.9507C20.2848 10.2734 20.7465 7.61365 21.868 5.65359Z" fill="#6161FF"/>
<path d="M19.0655 36.4164C19.4973 33.7576 18.9725 30.8171 17.5878 28.1365C16.2026 25.4553 14.1078 23.3255 11.6892 22.1392C9.12045 20.8793 6.48984 20.8142 4.28199 21.9559C2.07414 23.0966 0.605927 25.2796 0.147352 28.1031C-0.284521 30.762 0.24029 33.7024 1.62497 36.3833C3.01039 39.0637 5.10516 41.1931 7.52379 42.3793C9.92408 43.5567 12.5833 43.7767 14.9305 42.564C17.1387 41.4233 18.6072 39.2399 19.0655 36.4164ZM13.5612 39.9133C12.2141 40.6096 10.5368 40.534 8.83776 39.7007C6.98944 38.7941 5.36935 37.1293 4.27572 35.0135C3.18269 32.8974 2.76231 30.6133 3.09229 28.5814C3.39557 26.7139 4.30467 25.3026 5.6519 24.6065L5.65235 24.6062C7.14205 23.836 8.86745 24.0782 10.3753 24.8179C12.2235 25.7244 13.8436 27.3894 14.9372 29.506C16.0303 31.6221 16.4506 33.9064 16.1207 35.9383C15.8175 37.8057 14.9084 39.2172 13.5612 39.9133Z" fill="#6161FF"/>
<path d="M49.3769 24.5699C53.8993 24.5699 58.0275 19.6324 58.775 13.3289C59.5694 6.61375 56.186 0.0306396 50.8119 0.0306396C46.2888 0.0306396 42.161 4.96831 41.4153 11.2717C40.62 17.9991 44.0134 24.5699 49.3769 24.5699ZM44.3783 11.6221C44.9305 6.95611 47.8768 3.01406 50.8122 3.01406C50.9503 3.01406 51.0694 3.02078 51.176 3.03465C52.7667 3.21143 53.998 4.60162 54.7234 6.02106C55.71 7.95158 56.1068 10.4873 55.8124 12.9779C55.2391 17.8118 52.035 21.958 49.0132 21.5658C49.0077 21.5652 49.0022 21.5644 48.9967 21.5637C47.6402 21.4041 46.3535 20.3166 45.4668 18.5801C44.4804 16.6494 44.0838 14.1134 44.3783 11.6221Z" fill="#6161FF"/>
<path d="M76.2327 28.1095C75.2893 22.2996 70.0373 19.5222 64.6909 22.1457C59.6891 24.5994 56.4208 30.9201 57.3146 36.423C58.2692 42.3017 63.5735 44.9775 68.8562 42.386C73.8595 39.9318 77.1263 33.6119 76.2327 28.1095ZM67.5423 39.7072C65.8434 40.5403 64.1661 40.6156 62.8188 39.9197V39.9199C61.4716 39.2237 60.5625 37.8118 60.2594 35.9447C59.5773 31.7444 62.1745 26.7035 66.0048 24.824C69.515 23.1021 72.6601 24.7233 73.2877 28.5877C73.9686 32.7802 71.3796 37.8251 67.5423 39.7072Z" fill="#6161FF"/>
</svg>
