<svg width="62" height="70" viewBox="0 0 62 70" fill="none" xmlns="http://www.w3.org/2000/svg">
<path d="M21.3615 30.199C21.3716 30.199 21.3802 30.2048 21.3902 30.2048C21.3974 30.2048 21.4031 30.2005 21.4103 30.2005C22.3261 30.2162 23.0671 30.9601 23.0671 31.8802C23.0671 32.6714 23.7078 33.3135 24.5004 33.3135C25.2929 33.3135 25.9336 32.6714 25.9336 31.8802C25.9336 29.878 24.625 28.191 22.8234 27.5848V26.2103C22.8234 25.4191 22.1828 24.777 21.3902 24.777C20.5976 24.777 19.9569 25.4191 19.9569 26.2103V27.579C18.1467 28.181 16.8296 29.8708 16.8296 31.8802C16.8296 34.3899 18.872 36.4322 21.3816 36.4322C22.3103 36.4322 23.0671 37.189 23.0671 38.1177C23.0671 39.0393 22.3232 39.7846 21.4045 39.7975C21.3988 39.7975 21.3945 39.7947 21.3902 39.7947C21.3816 39.7947 21.3759 39.7989 21.3673 39.7989C20.4457 39.7903 19.6975 39.0408 19.6975 38.1163C19.6975 37.3252 19.0569 36.6831 18.2643 36.6831C17.4717 36.6831 16.831 37.3252 16.831 38.1163C16.831 40.1257 18.1482 41.8155 19.9584 42.4175V43.7891C19.9584 44.5803 20.599 45.2224 21.3916 45.2224C22.1842 45.2224 22.8249 44.5803 22.8249 43.7891V42.4132C24.6265 41.8069 25.935 40.12 25.935 38.1177C25.935 35.6081 23.8927 33.5657 21.383 33.5657C20.4543 33.5657 19.6975 32.8104 19.6975 31.8802C19.6975 30.9587 20.4428 30.2105 21.3615 30.199Z" fill="#6161FF"/>
<path d="M61.5739 7.88862C61.5739 7.88145 61.5696 7.87572 61.5696 7.86855C61.5567 3.52723 58.0223 0 53.6796 0H27.8423C24.9199 0 22.3673 1.60094 21.0043 3.97011H7.12326C3.19615 3.97011 0 7.17199 0 11.1077V58.8923C0 62.828 3.19472 66.0299 7.12326 66.0299H21.0043C22.3687 68.3976 24.9199 70 27.8423 70H53.6796C58.0309 70 61.571 66.4599 61.571 62.1071V7.90295C61.5725 7.89865 61.5739 7.89435 61.5739 7.88862ZM27.8423 2.86794H53.6796C55.9484 2.86794 57.8474 4.38862 58.4695 6.4568H23.051C23.6744 4.38718 25.5749 2.86794 27.8423 2.86794ZM41.1787 37.5455H35.7195C35.8657 36.717 35.9574 35.87 35.9574 35C35.9574 33.9982 35.8556 33.0207 35.6622 32.0747H41.1802C41.9728 32.0747 42.6134 31.4326 42.6134 30.6415V28.4486L49.645 35L42.612 41.55V38.9787C42.612 38.1876 41.9713 37.5455 41.1787 37.5455ZM33.0895 35C33.0895 41.4539 27.838 46.7054 21.3827 46.7054C14.9273 46.7054 9.67731 41.4539 9.67731 35C9.67731 28.5461 14.9287 23.2946 21.3841 23.2946C27.8395 23.2946 33.0895 28.5461 33.0895 35ZM2.86794 12.541H19.9509V20.4998C12.5854 21.2222 6.81081 27.4482 6.81081 35C6.81081 42.5518 12.5854 48.7779 19.9509 49.5002V53.8759H2.86794V12.541ZM7.12326 6.83661H20.0297C19.9838 7.17772 19.9523 7.52457 19.9509 7.87858C19.9509 7.88288 19.948 7.88575 19.948 7.88862C19.948 7.89148 19.9494 7.89292 19.9494 7.89578V9.67445H3.13165C3.72215 8.02621 5.2801 6.83661 7.12326 6.83661ZM7.12326 63.1634C4.77559 63.1634 2.8665 61.2471 2.8665 58.8923V56.7424H19.9494V58.3907H15.1509C14.3583 58.3907 13.7176 59.0328 13.7176 59.8239C13.7176 60.6151 14.3583 61.2572 15.1509 61.2572H19.9509V62.1071C19.9509 62.4668 19.9838 62.8165 20.0297 63.1634H7.12326ZM58.706 62.1071C58.706 64.879 56.4529 67.1335 53.681 67.1335H27.8423C25.0704 67.1335 22.8159 64.879 22.8159 62.1071V60.9892H35.3569H58.7045L58.706 62.1071ZM35.3569 58.1227H22.8159V49.5002C28.3153 48.9613 32.9189 45.3495 34.9025 40.412H39.7455V43.3372C39.7455 44.233 40.2385 45.0299 41.001 45.3667C41.2533 45.4785 41.517 45.533 41.7793 45.533C42.2565 45.533 42.7281 45.3524 43.1151 45.0012L52.0729 36.6583C52.5143 36.2412 52.7666 35.6378 52.7666 35.0014C52.7666 34.3651 52.5129 33.7602 52.0657 33.3374L43.1022 24.9902C42.516 24.4556 41.7119 24.3223 41.001 24.6347C40.2385 24.9715 39.7455 25.7684 39.7455 26.6642V29.2097H34.7492C32.6853 24.467 28.1749 21.0258 22.8159 20.5012V9.3233H58.7045V58.1227H35.3569Z" fill="#6161FF"/>
<path d="M36.9501 65.6389H44.5736C45.3661 65.6389 46.0068 64.9968 46.0068 64.2057C46.0068 63.4145 45.3661 62.7724 44.5736 62.7724H36.9501C36.1575 62.7724 35.5168 63.4145 35.5168 64.2057C35.5168 64.9968 36.1575 65.6389 36.9501 65.6389Z" fill="#6161FF"/>
</svg>
