<svg width="66" height="70" viewBox="0 0 66 70" fill="none" xmlns="http://www.w3.org/2000/svg">
<path fill-rule="evenodd" clip-rule="evenodd" d="M39.931 11.5691C40.947 8.77505 42.6903 6.71755 44.5502 5.58422C46.4032 4.455 48.2578 4.28731 49.7858 4.9558C49.808 4.96554 49.8304 4.97483 49.8529 4.98387C52.3697 5.99056 54.2287 9.40724 53.6475 13.7063C51.7114 13.0027 49.631 12.6181 47.4721 12.6181C46.8593 12.6181 46.2137 12.6994 45.7763 12.7657C45.5457 12.8007 45.3471 12.8356 45.2047 12.862C45.1333 12.8752 45.075 12.8865 45.0332 12.8948L44.9827 12.905L44.9671 12.9081L44.9584 12.91C43.7256 13.1674 42.9349 14.3755 43.1923 15.6083C43.4497 16.841 44.6603 17.6312 45.8931 17.3738L45.9196 17.3686L46.0366 17.3461C46.1406 17.3268 46.2888 17.3008 46.4601 17.2748C46.8264 17.2193 47.2046 17.1788 47.4721 17.1788C55.0163 17.1788 61.3316 23.4941 61.3316 31.0382C61.3316 36.338 58.2973 41.1234 53.7886 43.3777C53.0161 43.764 52.5281 44.5536 52.5281 45.4173V60.3068L42.4162 64.3515V45.4173C42.4162 44.5536 41.9282 43.764 41.1557 43.3777C36.647 41.1234 33.6127 36.338 33.6127 31.0382C33.6127 29.8474 33.8544 28.5913 34.1315 27.4829C34.437 26.2612 33.6941 25.023 32.4723 24.7176C31.2505 24.4122 30.0124 25.155 29.707 26.3769C29.3971 27.6161 29.052 29.2945 29.052 31.0382C29.052 37.5637 32.5104 43.5202 37.8555 46.7611V67.7197C37.8555 68.4763 38.2309 69.1838 38.8575 69.608C39.484 70.0321 40.2802 70.1179 40.9827 69.8369L55.6554 63.9679C56.5211 63.6216 57.0888 62.783 57.0888 61.8506V46.7611C62.4338 43.5202 65.8923 37.5637 65.8923 31.0382C65.8923 24.814 62.6952 19.2425 57.8746 15.8974C59.2831 9.68439 57.125 3.00417 51.5804 0.762863C48.4225 -0.604211 45.009 -0.0361739 42.1769 1.68963C39.3415 3.41744 36.9765 6.34857 35.6449 10.0105C34.3194 13.6556 34.2011 17.3923 35.167 20.5532C36.1328 23.7139 38.2378 26.4158 41.389 27.5976C44.4549 28.7472 47.8354 28.3278 50.7346 26.5158C51.8025 25.8483 52.1272 24.4414 51.4598 23.3735C50.7922 22.3055 49.3854 21.9808 48.3174 22.6483C46.5214 23.7708 44.6197 23.9382 42.9904 23.3272C41.4464 22.7482 40.1767 21.3418 39.5286 19.2204C38.8804 17.0991 38.9088 14.3799 39.931 11.5691Z" fill="#6161FF"/>
<path d="M31.0269 10.2616C31.6233 11.3709 31.2077 12.7536 30.0984 13.35C29.8487 13.4844 29.5682 13.6146 29.2581 13.7585C28.2245 14.2382 26.8614 14.8709 25.2039 16.3212C21.2243 19.8034 19.9429 25.0467 21.2124 29.8711C21.4304 30.6993 21.1658 31.5798 20.5276 32.1508L6.30221 44.8789L15.9869 49.7212L24.0814 42.3487C25.0125 41.5007 26.4547 41.5681 27.3027 42.4992C28.1508 43.4302 28.0835 44.8725 27.1524 45.7206L17.9016 54.1462C17.2048 54.7808 16.1892 54.9214 15.3463 54.4999L1.26061 47.4571C0.584918 47.1192 0.120463 46.4688 0.020206 45.7202C-0.0800596 44.9715 0.196925 44.2217 0.759892 43.718L16.4917 29.6421C15.3969 23.6884 17.183 17.2794 22.2007 12.8889C24.4506 10.9202 26.6448 9.92582 27.5637 9.50948C27.7363 9.43116 27.864 9.37336 27.9385 9.33328C29.0476 8.73679 30.4304 9.15243 31.0269 10.2616Z" fill="#6161FF"/>
</svg>
