<svg width="109" height="63" viewBox="0 0 109 63" fill="none" xmlns="http://www.w3.org/2000/svg">
<path d="M18.8639 51.2565C18.8072 51.2564 18.7506 51.2533 18.6942 51.2471C18.6085 51.2393 18.526 51.2471 18.4419 51.2471H1.5919C1.37439 51.2469 1.15933 51.2011 0.960588 51.1127C0.761846 51.0243 0.583825 50.8953 0.437993 50.7339C0.292161 50.5725 0.181754 50.3824 0.113884 50.1757C0.0460145 49.9691 0.0221878 49.7505 0.0439391 49.5341C1.11248 38.988 5.24772 28.9861 11.9386 20.7645C12.076 20.5954 12.2473 20.457 12.4416 20.3583C12.6358 20.2596 12.8485 20.2027 13.0661 20.1914C13.2838 20.1805 13.5014 20.2152 13.7049 20.2933C13.9084 20.3713 14.0934 20.491 14.2481 20.6446L26.1926 32.5719L26.4885 32.8523C26.7523 33.1153 26.9131 33.4642 26.9417 33.8356C26.9702 34.2071 26.8647 34.5765 26.6442 34.8768C23.3809 39.3183 21.2405 44.4833 20.4057 49.9312C20.3501 50.3002 20.1638 50.6369 19.8809 50.8801C19.5979 51.1233 19.2371 51.2569 18.8639 51.2565ZM3.34542 48.1263H17.5527C18.5092 43.116 20.4824 38.355 23.3505 34.137L13.2888 24.0878C7.95653 31.1089 4.53112 39.39 3.34542 48.1263Z" fill="black"/>
<path d="M33.0803 27.8198C32.6673 27.8197 32.2713 27.6555 31.9793 27.3635L31.8018 27.1766L19.77 15.1215C19.616 14.9673 19.496 14.7825 19.4179 14.579C19.3398 14.3755 19.3052 14.1578 19.3165 13.9401C19.3279 13.7224 19.3847 13.5095 19.4835 13.3152C19.5823 13.1209 19.7208 12.9495 19.89 12.812C28.1112 6.12594 38.1105 1.99361 48.6533 0.925151C48.8702 0.901349 49.0897 0.924189 49.2971 0.992141C49.5044 1.06009 49.6948 1.17159 49.8556 1.31915C50.0173 1.4651 50.1466 1.64335 50.2351 1.84239C50.3236 2.04143 50.3694 2.25683 50.3695 2.47467V19.3169C50.3648 19.4014 50.3648 19.4862 50.3695 19.5707C50.4143 19.9708 50.3024 20.3726 50.0574 20.692C49.8123 21.0114 49.4531 21.2235 49.0551 21.2838C43.6073 22.1186 38.4422 24.259 34.0007 27.5223C33.7332 27.7166 33.4109 27.8208 33.0803 27.8198ZM23.2132 14.1622L33.2625 24.2239C37.4809 21.357 42.2418 19.3844 47.2518 18.4277V4.2204C38.5155 5.40523 30.2343 8.83014 23.2132 14.1622Z" fill="black"/>
<path d="M75.4395 27.8195C75.1063 27.8172 74.7826 27.708 74.516 27.5081C73.1591 26.5048 71.7245 25.6112 70.2257 24.8357C69.3776 24.3722 68.5058 23.9533 67.6141 23.5806C65.477 22.6714 63.251 21.9871 60.9722 21.5389C60.463 21.4299 59.9662 21.3427 59.4694 21.2695C59.07 21.211 58.7088 20.9997 58.4622 20.6802C58.2155 20.3606 58.1026 19.9577 58.1472 19.5565C58.1519 19.4719 58.1519 19.3872 58.1472 19.3026V2.46665C58.1473 2.24882 58.1931 2.03342 58.2816 1.83438C58.3701 1.63534 58.4994 1.45709 58.6612 1.31113C58.8232 1.16505 59.0145 1.05507 59.2223 0.98849C59.4301 0.921908 59.6497 0.900242 59.8665 0.924925C62.2125 1.16408 64.5397 1.56105 66.8323 2.11315C67.0337 2.15855 67.2241 2.24355 67.3924 2.36322C67.5607 2.48288 67.7035 2.63481 67.8125 2.81016C67.9215 2.98552 67.9945 3.1808 68.0274 3.38465C68.0602 3.5885 68.0522 3.79684 68.0037 3.99756C67.9553 4.19828 67.8675 4.38736 67.7453 4.55381C67.6231 4.72026 67.4691 4.86076 67.2921 4.96712C67.1151 5.07348 66.9188 5.14359 66.7144 5.17336C66.5101 5.20313 66.3019 5.19198 66.1019 5.14054C64.5119 4.75744 62.8923 4.45222 61.2743 4.22796V18.4352L61.5967 18.5006C64.0767 18.9903 66.4993 19.7355 68.8257 20.7245C69.8039 21.1314 70.7598 21.5899 71.6895 22.098C72.9233 22.7361 74.1169 23.4492 75.2636 24.2331L85.3082 14.162C84.1791 13.307 83.0158 12.5004 81.8354 11.756C81.486 11.5356 81.2384 11.1855 81.1471 10.7826C81.0558 10.3797 81.1284 9.95708 81.3487 9.60766C81.5691 9.25825 81.9192 9.01067 82.3221 8.9194C82.725 8.82814 83.1476 8.90066 83.497 9.12101C85.2818 10.2481 86.9979 11.4806 88.6361 12.8118C88.805 12.9494 88.9431 13.1208 89.0416 13.315C89.1401 13.5093 89.1967 13.722 89.2079 13.9395C89.219 14.157 89.1844 14.3744 89.1063 14.5777C89.0282 14.781 88.9084 14.9656 88.7545 15.1197L76.5452 27.3617C76.4002 27.5071 76.2279 27.6225 76.0381 27.7011C75.8483 27.7796 75.6449 27.8199 75.4395 27.8195Z" fill="black"/>
<path d="M76.1863 8.47761C75.9626 8.47783 75.7416 8.42947 75.5384 8.3359C74.5464 7.88272 73.6993 7.53233 72.8692 7.23177C72.492 7.08315 72.1877 6.79331 72.0208 6.42385C71.854 6.05438 71.8378 5.63442 71.9757 5.25319C72.1136 4.87197 72.3947 4.55954 72.7593 4.38231C73.1239 4.20507 73.5432 4.17699 73.9282 4.30404C74.8267 4.62796 75.7782 5.0204 76.8341 5.50472C77.157 5.65277 77.4196 5.90676 77.5783 6.22454C77.737 6.54233 77.7822 6.90482 77.7066 7.25189C77.631 7.59895 77.439 7.90974 77.1625 8.13268C76.8859 8.35562 76.5415 8.47733 76.1863 8.47761Z" fill="black"/>
<path d="M89.6554 51.2572C89.283 51.2569 88.9231 51.1232 88.6408 50.8804C88.3585 50.6375 88.1726 50.3016 88.1168 49.9334C87.2826 44.484 85.1422 39.3172 81.8782 34.8743C81.6577 34.5741 81.5522 34.2047 81.5808 33.8332C81.6093 33.4618 81.7701 33.1129 82.0339 32.8498L82.2255 32.6676L94.2743 20.6406C94.4291 20.4871 94.6141 20.3676 94.8176 20.2896C95.0211 20.2116 95.2386 20.1768 95.4563 20.1874C95.6739 20.1988 95.8867 20.2556 96.0809 20.3544C96.2751 20.4531 96.4464 20.5914 96.5838 20.7605C103.273 28.9799 107.408 38.9789 108.478 49.5223C108.5 49.7387 108.476 49.9573 108.409 50.164C108.341 50.3706 108.23 50.5608 108.084 50.7222C107.939 50.8835 107.761 51.0126 107.562 51.101C107.363 51.1894 107.148 51.2351 106.931 51.2354H90.0774C89.9933 51.2354 89.9092 51.2354 89.8251 51.2354C89.769 51.2457 89.7123 51.253 89.6554 51.2572ZM90.9666 48.127H105.174C103.988 39.3907 100.563 31.1096 95.2305 24.0885L85.1688 34.1377C88.0369 38.3557 90.0101 43.1167 90.9666 48.127Z" fill="black"/>
<path d="M54.2592 62.9217C52.7191 62.9217 51.2137 62.465 49.9332 61.6094C48.6527 60.7538 47.6547 59.5377 47.0654 58.1149C46.476 56.6921 46.3218 55.1265 46.6223 53.6161C46.9227 52.1056 47.6643 50.7182 48.7533 49.6293C49.8422 48.5403 51.2297 47.7987 52.7401 47.4983C54.2505 47.1978 55.8161 47.352 57.2389 47.9414C58.6617 48.5307 59.8778 49.5287 60.7334 50.8092C61.589 52.0897 62.0457 53.5951 62.0457 55.1351C62.0432 57.1995 61.222 59.1786 59.7623 60.6383C58.3026 62.098 56.3235 62.9192 54.2592 62.9217ZM54.2592 50.4632C53.3352 50.4632 52.4319 50.7372 51.6636 51.2506C50.8953 51.764 50.2965 52.4936 49.9429 53.3473C49.5893 54.201 49.4968 55.1403 49.677 56.0466C49.8573 56.9528 50.3023 57.7853 50.9556 58.4387C51.609 59.0921 52.4415 59.537 53.3477 59.7173C54.254 59.8975 55.1933 59.805 56.047 59.4514C56.9007 59.0978 57.6304 58.499 58.1437 57.7307C58.6571 56.9624 58.9311 56.0592 58.9311 55.1351C58.9311 53.8961 58.4389 52.7078 57.5627 51.8316C56.6866 50.9555 55.4982 50.4632 54.2592 50.4632Z" fill="black"/>
<path d="M55.8168 50.6666C55.5518 50.6674 55.2909 50.6005 55.0589 50.4722C54.8269 50.344 54.6314 50.1587 54.4911 49.9338C54.3507 49.7089 54.2701 49.452 54.2568 49.1872C54.2436 48.9225 54.2981 48.6587 54.4153 48.4209L62.2018 32.6439C62.2923 32.4605 62.418 32.2966 62.5718 32.1618C62.7256 32.0269 62.9045 31.9237 63.0982 31.858C63.2919 31.7923 63.4966 31.7653 63.7008 31.7787C63.9049 31.7921 64.1043 31.8456 64.2878 31.9361C64.4712 32.0266 64.6351 32.1524 64.7699 32.3062C64.9047 32.46 65.008 32.6388 65.0737 32.8325C65.1394 33.0262 65.1664 33.231 65.153 33.4351C65.1395 33.6392 65.0861 33.8387 64.9956 34.0221L57.2091 49.7976C57.0809 50.0577 56.8827 50.2768 56.6367 50.4304C56.3907 50.5839 56.1068 50.6657 55.8168 50.6666Z" fill="black"/>
</svg>
