<svg width="22" height="20" viewBox="0 0 22 20" fill="none" xmlns="http://www.w3.org/2000/svg">
<path d="M21.4503 9.11016L17.0239 12.755L18.3498 18.1816C18.42 18.4653 18.4 18.7622 18.2923 19.0352C18.1846 19.3082 17.994 19.5452 17.7443 19.7166C17.4946 19.8879 17.1969 19.986 16.8884 19.9986C16.58 20.0112 16.2744 19.9377 16.01 19.7874L10.9936 16.9166L5.98805 19.7874C5.72361 19.9377 5.41806 20.0112 5.1096 19.9986C4.80114 19.986 4.50345 19.8879 4.25377 19.7166C4.00408 19.5452 3.81347 19.3082 3.70576 19.0352C3.59805 18.7622 3.57803 18.4653 3.6482 18.1816L4.97222 12.7606L0.544745 9.11016C0.310572 8.91961 0.14124 8.66806 0.0579842 8.38706C-0.0252714 8.10607 -0.0187445 7.80814 0.0767463 7.53063C0.172237 7.25312 0.352441 7.00839 0.59476 6.82713C0.837079 6.64586 1.13073 6.53614 1.43888 6.5117L7.27478 6.03479L9.5528 0.908257C9.67176 0.639258 9.87242 0.409482 10.1295 0.247861C10.3866 0.08624 10.6886 0 10.9975 0C11.3065 0 11.6085 0.08624 11.8656 0.247861C12.1227 0.409482 12.3233 0.639258 12.4423 0.908257L14.7272 6.03479L20.5611 6.5117C20.8693 6.53614 21.1629 6.64586 21.4052 6.82713C21.6476 7.00839 21.8278 7.25312 21.9233 7.53063C22.0187 7.80814 22.0253 8.10607 21.942 8.38706C21.8588 8.66806 21.6894 8.91961 21.4553 9.11016H21.4503Z" fill="#F9A527"/>
</svg>
