<svg width="45" height="45" viewBox="0 0 45 45" fill="none" xmlns="http://www.w3.org/2000/svg">
<circle cx="22.5" cy="22.5" r="22.5" fill="#EAEAFF"/>
<path d="M24.6209 15.7471C24.6209 15.7471 24.5051 15.6313 24.3893 15.6313C24.2735 15.5155 24.0419 15.5155 23.9261 15.6313C23.8103 15.6313 23.8103 15.7471 23.6946 15.7471L21.3788 18.0629C21.1472 18.2944 21.1472 18.6418 21.3788 18.8734C21.6103 19.105 21.9577 19.105 22.1893 18.8734L23.463 17.5997V21.9997C23.463 22.3471 23.6946 22.5786 24.0419 22.5786C24.3893 22.5786 24.6209 22.3471 24.6209 21.9997V17.5997L25.8946 18.8734C26.0103 18.9892 26.1261 18.9892 26.3577 18.9892C26.5893 18.9892 26.7051 18.9892 26.8209 18.8734C27.0524 18.6418 27.0524 18.2944 26.8209 18.0629L24.6209 15.7471Z" fill="black"/>
<path d="M32.2632 11H16.0526C15.1263 11 14.3158 11.8105 14.3158 12.7368V26.0526H12.5789C12.2316 26.0526 12 26.2842 12 26.6316V29.5263C12 31.4947 13.5053 33 15.4737 33H30.5263C32.4947 33 34 31.4947 34 29.5263V12.7368C34 11.8105 33.1895 11 32.2632 11ZM15.4737 31.8421C14.2 31.8421 13.1579 30.8 13.1579 29.5263V27.2105H27.0526V29.5263C27.0526 30.4526 27.4 31.2632 27.9789 31.8421H15.4737ZM32.8421 29.5263C32.8421 30.8 31.8 31.8421 30.5263 31.8421C29.2526 31.8421 28.2105 30.8 28.2105 29.5263V26.6316C28.2105 26.2842 27.9789 26.0526 27.6316 26.0526H15.4737V12.7368C15.4737 12.3895 15.7053 12.1579 16.0526 12.1579H32.2632C32.6105 12.1579 32.8421 12.3895 32.8421 12.7368V29.5263Z" fill="black"/>
</svg>
