<svg width="23" height="22" viewBox="0 0 23 22" fill="none" xmlns="http://www.w3.org/2000/svg">
<path d="M9.76534 14.2491C9.56083 14.2491 9.36654 14.1673 9.22338 14.0241L6.74877 11.5495C6.45223 11.253 6.45223 10.7621 6.74877 10.4656C7.04532 10.1691 7.53615 10.1691 7.83269 10.4656L9.76534 12.3982L14.1624 8.00122C14.4589 7.70467 14.9497 7.70467 15.2463 8.00122C15.5428 8.29776 15.5428 8.78859 15.2463 9.08513L10.3073 14.0241C10.1641 14.1673 9.96985 14.2491 9.76534 14.2491Z" fill="black"/>
<path d="M11.0026 22C10.3584 22 9.71416 21.7853 9.2131 21.3558L7.59745 19.9651C7.43384 19.822 7.02481 19.6788 6.81007 19.6788H5.05126C3.53787 19.6788 2.31079 18.4517 2.31079 16.9383V15.1897C2.31079 14.975 2.16763 14.5762 2.02448 14.4126L0.644014 12.7867C-0.194489 11.7948 -0.194489 10.2303 0.644014 9.23842L2.02448 7.61254C2.16763 7.44893 2.31079 7.05013 2.31079 6.83539V5.07658C2.31079 3.56319 3.53787 2.33611 5.05126 2.33611H6.8203C7.03504 2.33611 7.44407 2.18273 7.60768 2.0498L9.22333 0.659108C10.2254 -0.199846 11.79 -0.199846 12.7921 0.659108L14.4077 2.0498C14.5713 2.19295 14.9804 2.33611 15.1951 2.33611H16.9335C18.4469 2.33611 19.6739 3.56319 19.6739 5.07658V6.81494C19.6739 7.02968 19.8273 7.43871 19.9705 7.60232L21.3612 9.21797C22.2201 10.2201 22.2201 11.7846 21.3612 12.7867L19.9705 14.4024C19.8273 14.566 19.6739 14.975 19.6739 15.1897V16.9281C19.6739 18.4415 18.4469 19.6686 16.9335 19.6686H15.1951C14.9804 19.6686 14.5713 19.822 14.4077 19.9549L12.7921 21.3456C12.291 21.7853 11.6468 22 11.0026 22ZM5.05126 3.86996C4.3866 3.86996 3.84464 4.41192 3.84464 5.07658V6.82517C3.84464 7.40803 3.56855 8.1545 3.1902 8.5942L1.80974 10.2201C1.45184 10.6393 1.45184 11.3654 1.80974 11.7846L3.1902 13.4105C3.56855 13.8604 3.84464 14.5967 3.84464 15.1795V16.9281C3.84464 17.5928 4.3866 18.1347 5.05126 18.1347H6.8203C7.41339 18.1347 8.15986 18.4108 8.60979 18.7994L10.2254 20.1901C10.6447 20.548 11.3809 20.548 11.8002 20.1901L13.4158 18.7994C13.8658 18.421 14.6122 18.1347 15.2053 18.1347H16.9437C17.6084 18.1347 18.1503 17.5928 18.1503 16.9281V15.1897C18.1503 14.5967 18.4264 13.8502 18.815 13.4003L20.2057 11.7846C20.5636 11.3654 20.5636 10.6291 20.2057 10.2099L18.815 8.5942C18.4264 8.14428 18.1503 7.3978 18.1503 6.80472V5.07658C18.1503 4.41192 17.6084 3.86996 16.9437 3.86996H15.2053C14.6122 3.86996 13.8658 3.59387 13.4158 3.20529L11.8002 1.81461C11.3809 1.45671 10.6447 1.45671 10.2254 1.81461L8.60979 3.21552C8.15986 3.59387 7.40316 3.86996 6.8203 3.86996H5.05126Z" fill="black"/>
</svg>
