<svg width="56" height="70" viewBox="0 0 56 70" fill="none" xmlns="http://www.w3.org/2000/svg">
<path d="M43.1375 0.42C42.8225 0.1505 42.4165 0 42 0H8.75C3.927 0 0 3.9235 0 8.75V61.25C0 66.0765 3.927 70 8.75 70H47.25C52.073 70 56 66.0765 56 61.25V12.25C56 11.739 55.776 11.256 55.3875 10.92L43.1375 0.42ZM52.5 61.25C52.5 64.1445 50.1445 66.5 47.25 66.5H8.75C5.8555 66.5 3.5 64.1445 3.5 61.25V8.75C3.5 5.8555 5.8555 3.5 8.75 3.5H41.3525L52.5 13.0515V61.25Z" fill="#6161FF"/>
<path d="M29.0765 16.1179C28.443 15.6244 27.554 15.6244 26.924 16.1179C25.7795 17.0139 15.7485 25.0324 15.7485 31.5003C15.7485 38.2553 21.2435 43.7503 27.9985 43.7503C34.7535 43.7503 40.2485 38.2553 40.2485 31.5003C40.2485 25.0324 30.2175 17.0139 29.0765 16.1179ZM27.9985 40.2503C23.1755 40.2503 19.2485 36.3268 19.2485 31.5003C19.2485 28.2278 24.236 22.9254 27.9985 19.7579C31.761 22.9254 36.7485 28.2278 36.7485 31.5003C36.7485 36.3268 32.8215 40.2503 27.9985 40.2503Z" fill="#6161FF"/>
<path d="M38.4985 52.5H17.4985C16.5325 52.5 15.7485 53.284 15.7485 54.25C15.7485 55.216 16.5325 56 17.4985 56H38.4985C39.4645 56 40.2485 55.216 40.2485 54.25C40.2485 53.284 39.4645 52.5 38.4985 52.5Z" fill="#6161FF"/>
</svg>
